<svg version="1.2" baseProfile="tiny" xmlns="http://www.w3.org/2000/svg" width="480" height="230"><defs id="defs"><clipPath id="_ABSTRACT_RENDERER_ID_0"><rect x="0" y="40" width="480" height="160"></rect></clipPath></defs><g><rect x="0" y="17" width="422" height="11" stroke="none" stroke-width="0" fill-opacity="0" fill="#ffffff"></rect><g><rect x="0" y="17" width="81" height="11" stroke="none" stroke-width="0" fill-opacity="0" fill="#ffffff"></rect><g><text text-anchor="start" x="26" y="26.35" font-family="Arial" font-size="11" stroke="none" stroke-width="0" fill="#222222">backbonejs</text></g><path d="M0,22.5L22,22.5" stroke="#3f85f2" stroke-width="2" fill-opacity="1" fill="none"></path></g><g><rect x="99" y="17" width="77" height="11" stroke="none" stroke-width="0" fill-opacity="0" fill="#ffffff"></rect><g><text text-anchor="start" x="125" y="26.35" font-family="Arial" font-size="11" stroke="none" stroke-width="0" fill="#222222">knockoutjs</text></g><path d="M99,22.5L121,22.5" stroke="#db4437" stroke-width="2" fill-opacity="1" fill="none"></path></g><g><rect x="194" y="17" width="64" height="11" stroke="none" stroke-width="0" fill-opacity="0" fill="#ffffff"></rect><g><text text-anchor="start" x="220" y="26.35" font-family="Arial" font-size="11" stroke="none" stroke-width="0" fill="#222222">emberjs</text></g><path d="M194,22.5L216,22.5" stroke="#f4b400" stroke-width="2" fill-opacity="1" fill="none"></path></g><g><rect x="276" y="17" width="58" height="11" stroke="none" stroke-width="0" fill-opacity="0" fill="#ffffff"></rect><g><text text-anchor="start" x="302" y="26.35" font-family="Arial" font-size="11" stroke="none" stroke-width="0" fill="#222222">reactjs</text></g><path d="M276,22.5L298,22.5" stroke="#0f9d58" stroke-width="2" fill-opacity="1" fill="none"></path></g><g><rect x="352" y="17" width="70" height="11" stroke="none" stroke-width="0" fill-opacity="0" fill="#ffffff"></rect><g><text text-anchor="start" x="378" y="26.35" font-family="Arial" font-size="11" stroke="none" stroke-width="0" fill="#222222">angularjs</text></g><path d="M352,22.5L374,22.5" stroke="#7e3794" stroke-width="2" fill-opacity="1" fill="none"></path></g></g><g><rect x="0" y="40" width="480" height="160" stroke="none" stroke-width="0" fill-opacity="0" fill="#ffffff"></rect><g clip-path="url(#_ABSTRACT_RENDERER_ID_0)"><g><rect x="39" y="40" width="1" height="160" stroke="none" stroke-width="0" fill="#ffffff"></rect><rect x="121" y="40" width="1" height="160" stroke="none" stroke-width="0" fill="#ffffff"></rect><rect x="204" y="40" width="1" height="160" stroke="none" stroke-width="0" fill="#ffffff"></rect><rect x="286" y="40" width="1" height="160" stroke="none" stroke-width="0" fill="#ffffff"></rect><rect x="368" y="40" width="1" height="160" stroke="none" stroke-width="0" fill="#ffffff"></rect><rect x="450" y="40" width="1" height="160" stroke="none" stroke-width="0" fill="#ffffff"></rect><rect x="0" y="199" width="480" height="1" stroke="none" stroke-width="0" fill="#efefef"></rect><rect x="0" y="167" width="480" height="1" stroke="none" stroke-width="0" fill="#efefef"></rect><rect x="0" y="135" width="480" height="1" stroke="none" stroke-width="0" fill="#efefef"></rect><rect x="0" y="104" width="480" height="1" stroke="none" stroke-width="0" fill="#efefef"></rect><rect x="0" y="72" width="480" height="1" stroke="none" stroke-width="0" fill="#efefef"></rect><rect x="0" y="40" width="480" height="1" stroke="none" stroke-width="0" fill="#efefef"></rect></g><g><rect x="0" y="199" width="480" height="1" stroke="none" stroke-width="0" fill="#999999"></rect></g><g><path d="M0.5,199.5L3.8728765488846073,199.5L7.245753097769215,199.5L10.67015970503956,199.5L14.099250863072244,199.5L17.528342021104926,199.5L20.957433179137613,199.5L24.44273894631837,199.5L27.87183010435106,199.5L31.300921262383742,199.5L34.734696971178764,199.5L38.16378812921145,199.5L41.64909389639221,199.5L44.96575583612874,199.5L48.28241777586527,199.5L51.70682438313562,199.5L55.1359155411683,199.5L58.565006699200985,199.5L61.99409785723367,199.5L65.47940362441443,199.5L68.90849478244712,199.5L72.3375859404798,199.5L75.77136164927482,199.5L79.20045280730751,199.5L82.68575857448826,199.5L86.0024205142248,199.5L89.31908245396133,199.5L92.74348906123167,199.5L96.17258021926436,199.5L99.60167137729704,199.5L103.03076253532973,199.5L106.51606830251049,199.5L109.94515946054317,199.5L113.37425061857586,199.5L116.80802632737088,199.5L120.23711748540356,199.5L123.72242325258432,199.5L127.03908519232085,199.5L130.3557471320574,199.5L133.78015373932774,199.5L137.2092448973604,199.5L140.6383360553931,199.5L144.0674272134258,199.5L147.55273298060655,199.5L150.98182413863924,199.5L154.4109152966719,199.5L157.84469100546693,199.5L161.27378216349962,199.5L164.75908793068038,199.5L168.131964479565,199.5L171.5048410284496,199.5L174.92924763571995,199.5L178.35833879375264,199.5L181.7874299517853,199.5L185.216521109818,199.5L188.70182687699875,199.5L192.13091803503144,199.5L195.56000919306413,199.5L198.99378490185916,199.5L202.42287605989182,199.5L205.90818182707258,199.5L209.22484376680913,199.5L212.54150570654565,199.5L215.965912313816,199.5L219.3950034718487,199.5L222.82409462988136,199.5L226.25318578791405,199.5L229.7384915550948,199.5L233.1675827131275,199.5L236.5966738711602,199.5L240.03044957995522,199.5L243.45954073798788,199.5L246.94484650516864,199.5L250.2615084449052,199.5L253.5781703846417,199.5L257.00257699191206,199.5L260.43166814994476,199.5L263.86075930797745,199.5L267.28985046601014,199.5L270.77515623319084,199.5L274.20424739122353,199.5L277.6333385492562,199.5L281.0671142580513,199.5L284.49620541608397,199.5L287.98151118326473,199.5L291.2981731230012,199.5L294.61483506273777,199.5L298.0392416700081,199.5L301.4683328280408,199.5L304.8974239860735,199.5L308.32651514410617,199.5L311.81182091128693,197.91L315.2409120693196,199.5L318.6700032273523,199.5L322.1037789361473,199.5L325.53287009418,197.91L329.01817586136076,197.91L332.3910524102454,197.91L335.76392895913,197.91L339.1883355664003,197.91L342.617426724433,197.91L346.0465178824657,197.91L349.4756090404984,197.91L352.96091480767916,197.91L356.3900059657118,197.91L359.8190971237445,196.32L363.25287283253954,197.91L366.6819639905722,197.91L370.167269757753,197.91L373.4839316974895,196.32L376.80059363722603,197.91L380.22500024449636,197.91L383.65409140252905,197.91L387.08318256056174,197.91L390.51227371859443,197.91L393.9975794857752,197.91L397.4266706438079,197.91L400.8557618018406,197.91L404.28953751063557,197.91L407.71862866866826,197.91L411.203934435849,197.91L414.52059637558557,197.91L417.8372583153221,197.91L421.26166492259244,197.91L424.69075608062514,197.91L428.1198472386578,197.91L431.5489383966905,197.91L435.0342441638713,197.91L438.4633353219039,197.91L441.8924264799366,197.91L445.32620218873166,197.91L448.75529334676435,197.91L452.2405991139451,197.91L455.5572610536816,197.91L458.87392299341815,197.91L462.2983296006885,197.91L465.72742075872117,197.91L469.15651191675386,197.91L472.58560307478655,197.91L476.0709088419673,197.91" stroke="#3f85f2" stroke-width="2" fill-opacity="1" fill="none"></path><path d="M0.5,199.5L3.8728765488846073,199.5L7.245753097769215,199.5L10.67015970503956,199.5L14.099250863072244,199.5L17.528342021104926,199.5L20.957433179137613,199.5L24.44273894631837,199.5L27.87183010435106,199.5L31.300921262383742,199.5L34.734696971178764,199.5L38.16378812921145,199.5L41.64909389639221,199.5L44.96575583612874,199.5L48.28241777586527,199.5L51.70682438313562,199.5L55.1359155411683,199.5L58.565006699200985,199.5L61.99409785723367,199.5L65.47940362441443,199.5L68.90849478244712,199.5L72.3375859404798,199.5L75.77136164927482,199.5L79.20045280730751,199.5L82.68575857448826,199.5L86.0024205142248,199.5L89.31908245396133,199.5L92.74348906123167,199.5L96.17258021926436,199.5L99.60167137729704,199.5L103.03076253532973,199.5L106.51606830251049,199.5L109.94515946054317,199.5L113.37425061857586,199.5L116.80802632737088,199.5L120.23711748540356,199.5L123.72242325258432,199.5L127.03908519232085,199.5L130.3557471320574,199.5L133.78015373932774,199.5L137.2092448973604,199.5L140.6383360553931,199.5L144.0674272134258,199.5L147.55273298060655,199.5L150.98182413863924,199.5L154.4109152966719,199.5L157.84469100546693,199.5L161.27378216349962,199.5L164.75908793068038,199.5L168.131964479565,199.5L171.5048410284496,199.5L174.92924763571995,199.5L178.35833879375264,199.5L181.7874299517853,199.5L185.216521109818,199.5L188.70182687699875,199.5L192.13091803503144,199.5L195.56000919306413,199.5L198.99378490185916,199.5L202.42287605989182,199.5L205.90818182707258,199.5L209.22484376680913,199.5L212.54150570654565,199.5L215.965912313816,199.5L219.3950034718487,199.5L222.82409462988136,199.5L226.25318578791405,199.5L229.7384915550948,199.5L233.1675827131275,199.5L236.5966738711602,199.5L240.03044957995522,199.5L243.45954073798788,199.5L246.94484650516864,199.5L250.2615084449052,199.5L253.5781703846417,199.5L257.00257699191206,199.5L260.43166814994476,199.5L263.86075930797745,199.5L267.28985046601014,199.5L270.77515623319084,199.5L274.20424739122353,199.5L277.6333385492562,199.5L281.0671142580513,199.5L284.49620541608397,199.5L287.98151118326473,199.5L291.2981731230012,199.5L294.61483506273777,199.5L298.0392416700081,199.5L301.4683328280408,197.91L304.8974239860735,197.91L308.32651514410617,197.91L311.81182091128693,197.91L315.2409120693196,197.91L318.6700032273523,197.91L322.1037789361473,197.91L325.53287009418,197.91L329.01817586136076,196.32L332.3910524102454,196.32L335.76392895913,196.32L339.1883355664003,196.32L342.617426724433,196.32L346.0465178824657,196.32L349.4756090404984,196.32L352.96091480767916,194.73L356.3900059657118,194.73L359.8190971237445,194.73L363.25287283253954,194.73L366.6819639905722,196.32L370.167269757753,194.73L373.4839316974895,194.73L376.80059363722603,194.73L380.22500024449636,194.73L383.65409140252905,194.73L387.08318256056174,194.73L390.51227371859443,194.73L393.9975794857752,194.73L397.4266706438079,194.73L400.8557618018406,194.73L404.28953751063557,194.73L407.71862866866826,196.32L411.203934435849,194.73L414.52059637558557,194.73L417.8372583153221,196.32L421.26166492259244,196.32L424.69075608062514,196.32L428.1198472386578,196.32L431.5489383966905,196.32L435.0342441638713,196.32L438.4633353219039,196.32L441.8924264799366,196.32L445.32620218873166,196.32L448.75529334676435,196.32L452.2405991139451,197.91L455.5572610536816,196.32L458.87392299341815,196.32L462.2983296006885,196.32L465.72742075872117,196.32L469.15651191675386,196.32L472.58560307478655,196.32L476.0709088419673,197.91" stroke="#db4437" stroke-width="2" fill-opacity="1" fill="none"></path><path d="M0.5,199.5L3.8728765488846073,199.5L7.245753097769215,199.5L10.67015970503956,199.5L14.099250863072244,199.5L17.528342021104926,199.5L20.957433179137613,199.5L24.44273894631837,199.5L27.87183010435106,199.5L31.300921262383742,199.5L34.734696971178764,199.5L38.16378812921145,199.5L41.64909389639221,199.5L44.96575583612874,199.5L48.28241777586527,199.5L51.70682438313562,199.5L55.1359155411683,199.5L58.565006699200985,199.5L61.99409785723367,199.5L65.47940362441443,199.5L68.90849478244712,199.5L72.3375859404798,199.5L75.77136164927482,199.5L79.20045280730751,199.5L82.68575857448826,199.5L86.0024205142248,199.5L89.31908245396133,199.5L92.74348906123167,199.5L96.17258021926436,199.5L99.60167137729704,199.5L103.03076253532973,199.5L106.51606830251049,199.5L109.94515946054317,199.5L113.37425061857586,199.5L116.80802632737088,199.5L120.23711748540356,199.5L123.72242325258432,199.5L127.03908519232085,199.5L130.3557471320574,199.5L133.78015373932774,199.5L137.2092448973604,199.5L140.6383360553931,199.5L144.0674272134258,199.5L147.55273298060655,199.5L150.98182413863924,199.5L154.4109152966719,199.5L157.84469100546693,199.5L161.27378216349962,199.5L164.75908793068038,199.5L168.131964479565,199.5L171.5048410284496,199.5L174.92924763571995,199.5L178.35833879375264,199.5L181.7874299517853,199.5L185.216521109818,199.5L188.70182687699875,199.5L192.13091803503144,199.5L195.56000919306413,199.5L198.99378490185916,199.5L202.42287605989182,199.5L205.90818182707258,199.5L209.22484376680913,199.5L212.54150570654565,199.5L215.965912313816,199.5L219.3950034718487,199.5L222.82409462988136,199.5L226.25318578791405,199.5L229.7384915550948,199.5L233.1675827131275,199.5L236.5966738711602,199.5L240.03044957995522,199.5L243.45954073798788,199.5L246.94484650516864,199.5L250.2615084449052,199.5L253.5781703846417,199.5L257.00257699191206,199.5L260.43166814994476,199.5L263.86075930797745,199.5L267.28985046601014,199.5L270.77515623319084,199.5L274.20424739122353,199.5L277.6333385492562,199.5L281.0671142580513,199.5L284.49620541608397,199.5L287.98151118326473,199.5L291.2981731230012,199.5L294.61483506273777,199.5L298.0392416700081,199.5L301.4683328280408,199.5L304.8974239860735,199.5L308.32651514410617,199.5L311.81182091128693,199.5L315.2409120693196,199.5L318.6700032273523,199.5L322.1037789361473,199.5L325.53287009418,199.5L329.01817586136076,199.5L332.3910524102454,199.5L335.76392895913,197.91L339.1883355664003,197.91L342.617426724433,197.91L346.0465178824657,197.91L349.4756090404984,197.91L352.96091480767916,197.91L356.3900059657118,197.91L359.8190971237445,197.91L363.25287283253954,197.91L366.6819639905722,197.91L370.167269757753,197.91L373.4839316974895,196.32L376.80059363722603,196.32L380.22500024449636,196.32L383.65409140252905,197.91L387.08318256056174,196.32L390.51227371859443,197.91L393.9975794857752,197.91L397.4266706438079,196.32L400.8557618018406,196.32L404.28953751063557,196.32L407.71862866866826,196.32L411.203934435849,196.32L414.52059637558557,196.32L417.8372583153221,196.32L421.26166492259244,196.32L424.69075608062514,196.32L428.1198472386578,196.32L431.5489383966905,196.32L435.0342441638713,196.32L438.4633353219039,196.32L441.8924264799366,196.32L445.32620218873166,196.32L448.75529334676435,196.32L452.2405991139451,196.32L455.5572610536816,196.32L458.87392299341815,196.32L462.2983296006885,196.32L465.72742075872117,196.32L469.15651191675386,196.32L472.58560307478655,196.32L476.0709088419673,196.32" stroke="#f4b400" stroke-width="2" fill-opacity="1" fill="none"></path><path d="M0.5,199.5L3.8728765488846073,199.5L7.245753097769215,199.5L10.67015970503956,199.5L14.099250863072244,199.5L17.528342021104926,199.5L20.957433179137613,199.5L24.44273894631837,199.5L27.87183010435106,199.5L31.300921262383742,199.5L34.734696971178764,199.5L38.16378812921145,199.5L41.64909389639221,199.5L44.96575583612874,199.5L48.28241777586527,199.5L51.70682438313562,199.5L55.1359155411683,199.5L58.565006699200985,199.5L61.99409785723367,199.5L65.47940362441443,199.5L68.90849478244712,199.5L72.3375859404798,199.5L75.77136164927482,199.5L79.20045280730751,199.5L82.68575857448826,199.5L86.0024205142248,199.5L89.31908245396133,199.5L92.74348906123167,199.5L96.17258021926436,199.5L99.60167137729704,199.5L103.03076253532973,199.5L106.51606830251049,199.5L109.94515946054317,199.5L113.37425061857586,199.5L116.80802632737088,199.5L120.23711748540356,199.5L123.72242325258432,199.5L127.03908519232085,199.5L130.3557471320574,199.5L133.78015373932774,199.5L137.2092448973604,199.5L140.6383360553931,199.5L144.0674272134258,199.5L147.55273298060655,199.5L150.98182413863924,199.5L154.4109152966719,199.5L157.84469100546693,199.5L161.27378216349962,199.5L164.75908793068038,199.5L168.131964479565,199.5L171.5048410284496,199.5L174.92924763571995,199.5L178.35833879375264,199.5L181.7874299517853,199.5L185.216521109818,199.5L188.70182687699875,199.5L192.13091803503144,199.5L195.56000919306413,199.5L198.99378490185916,199.5L202.42287605989182,199.5L205.90818182707258,199.5L209.22484376680913,199.5L212.54150570654565,199.5L215.965912313816,199.5L219.3950034718487,199.5L222.82409462988136,199.5L226.25318578791405,199.5L229.7384915550948,199.5L233.1675827131275,199.5L236.5966738711602,199.5L240.03044957995522,199.5L243.45954073798788,199.5L246.94484650516864,199.5L250.2615084449052,199.5L253.5781703846417,199.5L257.00257699191206,199.5L260.43166814994476,199.5L263.86075930797745,199.5L267.28985046601014,199.5L270.77515623319084,199.5L274.20424739122353,199.5L277.6333385492562,199.5L281.0671142580513,199.5L284.49620541608397,199.5L287.98151118326473,199.5L291.2981731230012,199.5L294.61483506273777,199.5L298.0392416700081,199.5L301.4683328280408,199.5L304.8974239860735,199.5L308.32651514410617,199.5L311.81182091128693,199.5L315.2409120693196,199.5L318.6700032273523,199.5L322.1037789361473,199.5L325.53287009418,199.5L329.01817586136076,199.5L332.3910524102454,199.5L335.76392895913,199.5L339.1883355664003,199.5L342.617426724433,199.5L346.0465178824657,199.5L349.4756090404984,199.5L352.96091480767916,199.5L356.3900059657118,199.5L359.8190971237445,199.5L363.25287283253954,199.5L366.6819639905722,199.5L370.167269757753,199.5L373.4839316974895,199.5L376.80059363722603,199.5L380.22500024449636,199.5L383.65409140252905,199.5L387.08318256056174,199.5L390.51227371859443,199.5L393.9975794857752,199.5L397.4266706438079,199.5L400.8557618018406,199.5L404.28953751063557,199.5L407.71862866866826,199.5L411.203934435849,197.91L414.52059637558557,197.91L417.8372583153221,197.91L421.26166492259244,197.91L424.69075608062514,197.91L428.1198472386578,197.91L431.5489383966905,196.32L435.0342441638713,196.32L438.4633353219039,196.32L441.8924264799366,196.32L445.32620218873166,194.73L448.75529334676435,194.73L452.2405991139451,193.14L455.5572610536816,189.96L458.87392299341815,191.55L462.2983296006885,191.55L465.72742075872117,191.55L469.15651191675386,189.96L472.58560307478655,189.96L476.0709088419673,189.96" stroke="#0f9d58" stroke-width="2" fill-opacity="1" fill="none"></path><path d="M0.5,199.5L3.8728765488846073,199.5L7.245753097769215,199.5L10.67015970503956,199.5L14.099250863072244,199.5L17.528342021104926,199.5L20.957433179137613,199.5L24.44273894631837,199.5L27.87183010435106,199.5L31.300921262383742,199.5L34.734696971178764,199.5L38.16378812921145,199.5L41.64909389639221,199.5L44.96575583612874,199.5L48.28241777586527,199.5L51.70682438313562,199.5L55.1359155411683,199.5L58.565006699200985,199.5L61.99409785723367,199.5L65.47940362441443,199.5L68.90849478244712,199.5L72.3375859404798,199.5L75.77136164927482,199.5L79.20045280730751,199.5L82.68575857448826,199.5L86.0024205142248,199.5L89.31908245396133,199.5L92.74348906123167,199.5L96.17258021926436,199.5L99.60167137729704,199.5L103.03076253532973,199.5L106.51606830251049,199.5L109.94515946054317,199.5L113.37425061857586,199.5L116.80802632737088,199.5L120.23711748540356,199.5L123.72242325258432,199.5L127.03908519232085,199.5L130.3557471320574,199.5L133.78015373932774,199.5L137.2092448973604,199.5L140.6383360553931,199.5L144.0674272134258,199.5L147.55273298060655,199.5L150.98182413863924,199.5L154.4109152966719,199.5L157.84469100546693,199.5L161.27378216349962,199.5L164.75908793068038,199.5L168.131964479565,199.5L171.5048410284496,199.5L174.92924763571995,199.5L178.35833879375264,199.5L181.7874299517853,199.5L185.216521109818,199.5L188.70182687699875,199.5L192.13091803503144,199.5L195.56000919306413,199.5L198.99378490185916,199.5L202.42287605989182,199.5L205.90818182707258,199.5L209.22484376680913,199.5L212.54150570654565,199.5L215.965912313816,199.5L219.3950034718487,199.5L222.82409462988136,199.5L226.25318578791405,199.5L229.7384915550948,199.5L233.1675827131275,199.5L236.5966738711602,199.5L240.03044957995522,199.5L243.45954073798788,199.5L246.94484650516864,199.5L250.2615084449052,199.5L253.5781703846417,199.5L257.00257699191206,199.5L260.43166814994476,199.5L263.86075930797745,199.5L267.28985046601014,199.5L270.77515623319084,199.5L274.20424739122353,199.5L277.6333385492562,199.5L281.0671142580513,199.5L284.49620541608397,199.5L287.98151118326473,199.5L291.2981731230012,199.5L294.61483506273777,199.5L298.0392416700081,199.5L301.4683328280408,199.5L304.8974239860735,199.5L308.32651514410617,199.5L311.81182091128693,199.5L315.2409120693196,199.5L318.6700032273523,199.5L322.1037789361473,199.5L325.53287009418,199.5L329.01817586136076,199.5L332.3910524102454,199.5L335.76392895913,199.5L339.1883355664003,197.91L342.617426724433,197.91L346.0465178824657,196.32L349.4756090404984,194.73L352.96091480767916,193.14L356.3900059657118,193.14L359.8190971237445,191.55L363.25287283253954,189.96L366.6819639905722,188.37L370.167269757753,185.19L373.4839316974895,180.42L376.80059363722603,177.24L380.22500024449636,170.88L383.65409140252905,166.11L387.08318256056174,162.93L390.51227371859443,156.57L393.9975794857752,153.39L397.4266706438079,148.62L400.8557618018406,142.26L404.28953751063557,139.07999999999998L407.71862866866826,137.49L411.203934435849,127.95L414.52059637558557,116.82L417.8372583153221,112.05L421.26166492259244,100.92L424.69075608062514,97.74L428.1198472386578,94.55999999999999L431.5489383966905,85.02L435.0342441638713,81.83999999999999L438.4633353219039,67.53L441.8924264799366,67.53L445.32620218873166,67.53L448.75529334676435,64.35L452.2405991139451,67.53L455.5572610536816,51.629999999999995L458.87392299341815,51.629999999999995L462.2983296006885,48.44999999999999L465.72742075872117,46.859999999999985L469.15651191675386,40.5L472.58560307478655,42.09L476.0709088419673,46.859999999999985" stroke="#7e3794" stroke-width="2" fill-opacity="1" fill="none"></path></g></g><g></g><g><g><text text-anchor="middle" x="39.90644101280183" y="213.65" font-family="Arial" font-size="9" stroke="none" stroke-width="0" fill="#999999">2005</text></g><g><text text-anchor="middle" x="121.97977036899394" y="213.65" font-family="Arial" font-size="9" stroke="none" stroke-width="0" fill="#999999">2007</text></g><g><text text-anchor="middle" x="204.1655289434822" y="213.65" font-family="Arial" font-size="9" stroke="none" stroke-width="0" fill="#999999">2009</text></g><g><text text-anchor="middle" x="286.23885829967435" y="213.65" font-family="Arial" font-size="9" stroke="none" stroke-width="0" fill="#999999">2011</text></g><g><text text-anchor="middle" x="368.4246168741626" y="213.65" font-family="Arial" font-size="9" stroke="none" stroke-width="0" fill="#999999">2013</text></g><g><text text-anchor="middle" x="450.4979462303547" y="213.65" font-family="Arial" font-size="9" stroke="none" stroke-width="0" fill="#999999">2015</text></g></g></g><g></g></svg>
