<svg version="1.2" baseProfile="tiny" xmlns="http://www.w3.org/2000/svg" width="480" height="230"><defs id="defs"><clipPath id="_ABSTRACT_RENDERER_ID_0"><rect x="0" y="40" width="480" height="160"></rect></clipPath></defs><g><rect x="0" y="17" width="258" height="11" stroke="none" stroke-width="0" fill-opacity="0" fill="#ffffff"></rect><g><rect x="0" y="17" width="81" height="11" stroke="none" stroke-width="0" fill-opacity="0" fill="#ffffff"></rect><g><text text-anchor="start" x="26" y="26.35" font-family="Arial" font-size="11" stroke="none" stroke-width="0" fill="#222222">backbonejs</text></g><path d="M0,22.5L22,22.5" stroke="#3f85f2" stroke-width="2" fill-opacity="1" fill="none"></path></g><g><rect x="99" y="17" width="77" height="11" stroke="none" stroke-width="0" fill-opacity="0" fill="#ffffff"></rect><g><text text-anchor="start" x="125" y="26.35" font-family="Arial" font-size="11" stroke="none" stroke-width="0" fill="#222222">knockoutjs</text></g><path d="M99,22.5L121,22.5" stroke="#db4437" stroke-width="2" fill-opacity="1" fill="none"></path></g><g><rect x="194" y="17" width="64" height="11" stroke="none" stroke-width="0" fill-opacity="0" fill="#ffffff"></rect><g><text text-anchor="start" x="220" y="26.35" font-family="Arial" font-size="11" stroke="none" stroke-width="0" fill="#222222">emberjs</text></g><path d="M194,22.5L216,22.5" stroke="#f4b400" stroke-width="2" fill-opacity="1" fill="none"></path></g></g><g><rect x="0" y="40" width="480" height="160" stroke="none" stroke-width="0" fill-opacity="0" fill="#ffffff"></rect><g clip-path="url(#_ABSTRACT_RENDERER_ID_0)"><g><rect x="39" y="40" width="1" height="160" stroke="none" stroke-width="0" fill="#ffffff"></rect><rect x="121" y="40" width="1" height="160" stroke="none" stroke-width="0" fill="#ffffff"></rect><rect x="204" y="40" width="1" height="160" stroke="none" stroke-width="0" fill="#ffffff"></rect><rect x="286" y="40" width="1" height="160" stroke="none" stroke-width="0" fill="#ffffff"></rect><rect x="368" y="40" width="1" height="160" stroke="none" stroke-width="0" fill="#ffffff"></rect><rect x="450" y="40" width="1" height="160" stroke="none" stroke-width="0" fill="#ffffff"></rect><rect x="0" y="199" width="480" height="1" stroke="none" stroke-width="0" fill="#efefef"></rect><rect x="0" y="167" width="480" height="1" stroke="none" stroke-width="0" fill="#efefef"></rect><rect x="0" y="135" width="480" height="1" stroke="none" stroke-width="0" fill="#efefef"></rect><rect x="0" y="104" width="480" height="1" stroke="none" stroke-width="0" fill="#efefef"></rect><rect x="0" y="72" width="480" height="1" stroke="none" stroke-width="0" fill="#efefef"></rect><rect x="0" y="40" width="480" height="1" stroke="none" stroke-width="0" fill="#efefef"></rect></g><g><rect x="0" y="199" width="480" height="1" stroke="none" stroke-width="0" fill="#999999"></rect></g><g><path d="M0.5,199.5L3.8728765488846073,199.5L7.245753097769215,199.5L10.67015970503956,199.5L14.099250863072244,199.5L17.528342021104926,199.5L20.957433179137613,199.5L24.44273894631837,199.5L27.87183010435106,199.5L31.300921262383742,199.5L34.734696971178764,199.5L38.16378812921145,199.5L41.64909389639221,199.5L44.96575583612874,199.5L48.28241777586527,199.5L51.70682438313562,199.5L55.1359155411683,199.5L58.565006699200985,199.5L61.99409785723367,199.5L65.47940362441443,199.5L68.90849478244712,199.5L72.3375859404798,199.5L75.77136164927482,199.5L79.20045280730751,199.5L82.68575857448826,199.5L86.0024205142248,199.5L89.31908245396133,199.5L92.74348906123167,199.5L96.17258021926436,199.5L99.60167137729704,199.5L103.03076253532973,199.5L106.51606830251049,199.5L109.94515946054317,199.5L113.37425061857586,199.5L116.80802632737088,199.5L120.23711748540356,199.5L123.72242325258432,199.5L127.03908519232085,199.5L130.3557471320574,199.5L133.78015373932774,199.5L137.2092448973604,199.5L140.6383360553931,199.5L144.0674272134258,199.5L147.55273298060655,199.5L150.98182413863924,199.5L154.4109152966719,199.5L157.84469100546693,199.5L161.27378216349962,199.5L164.75908793068038,199.5L168.131964479565,199.5L171.5048410284496,199.5L174.92924763571995,199.5L178.35833879375264,199.5L181.7874299517853,199.5L185.216521109818,199.5L188.70182687699875,199.5L192.13091803503144,199.5L195.56000919306413,199.5L198.99378490185916,199.5L202.42287605989182,199.5L205.90818182707258,199.5L209.22484376680913,199.5L212.54150570654565,199.5L215.965912313816,199.5L219.3950034718487,199.5L222.82409462988136,199.5L226.25318578791405,199.5L229.7384915550948,199.5L233.1675827131275,199.5L236.5966738711602,199.5L240.03044957995522,199.5L243.45954073798788,199.5L246.94484650516864,199.5L250.2615084449052,199.5L253.5781703846417,199.5L257.00257699191206,199.5L260.43166814994476,199.5L263.86075930797745,199.5L267.28985046601014,199.5L270.77515623319084,199.5L274.20424739122353,199.5L277.6333385492562,199.5L281.0671142580513,199.5L284.49620541608397,199.5L287.98151118326473,199.5L291.2981731230012,193.14L294.61483506273777,193.14L298.0392416700081,191.55L301.4683328280408,186.78L304.8974239860735,191.55L308.32651514410617,182.01L311.81182091128693,174.06L315.2409120693196,178.82999999999998L318.6700032273523,182.01L322.1037789361473,177.24L325.53287009418,161.34L329.01817586136076,162.93L332.3910524102454,159.75L335.76392895913,154.98L339.1883355664003,153.39L342.617426724433,142.26L346.0465178824657,139.07999999999998L349.4756090404984,123.17999999999999L352.96091480767916,135.9L356.3900059657118,127.95L359.8190971237445,116.82L363.25287283253954,134.31L366.6819639905722,135.9L370.167269757753,124.77L373.4839316974895,115.22999999999999L376.80059363722603,126.36L380.22500024449636,127.95L383.65409140252905,132.72L387.08318256056174,124.77L390.51227371859443,137.49L393.9975794857752,132.72L397.4266706438079,137.49L400.8557618018406,126.36L404.28953751063557,124.77L407.71862866866826,139.07999999999998L411.203934435849,135.9L414.52059637558557,131.13L417.8372583153221,132.72L421.26166492259244,126.36L424.69075608062514,124.77L428.1198472386578,139.07999999999998L431.5489383966905,142.26L435.0342441638713,142.26L438.4633353219039,150.21L441.8924264799366,151.8L445.32620218873166,145.44L448.75529334676435,148.62L452.2405991139451,145.44L455.5572610536816,151.8L458.87392299341815,150.21L462.2983296006885,156.57L465.72742075872117,153.39L469.15651191675386,156.57L472.58560307478655,150.21L476.0709088419673,158.16" stroke="#3f85f2" stroke-width="2" fill-opacity="1" fill="none"></path><path d="M0.5,199.5L3.8728765488846073,199.5L7.245753097769215,199.5L10.67015970503956,199.5L14.099250863072244,199.5L17.528342021104926,199.5L20.957433179137613,199.5L24.44273894631837,199.5L27.87183010435106,199.5L31.300921262383742,199.5L34.734696971178764,199.5L38.16378812921145,199.5L41.64909389639221,199.5L44.96575583612874,199.5L48.28241777586527,199.5L51.70682438313562,199.5L55.1359155411683,199.5L58.565006699200985,199.5L61.99409785723367,199.5L65.47940362441443,199.5L68.90849478244712,199.5L72.3375859404798,199.5L75.77136164927482,199.5L79.20045280730751,199.5L82.68575857448826,199.5L86.0024205142248,199.5L89.31908245396133,199.5L92.74348906123167,199.5L96.17258021926436,199.5L99.60167137729704,199.5L103.03076253532973,199.5L106.51606830251049,199.5L109.94515946054317,199.5L113.37425061857586,199.5L116.80802632737088,199.5L120.23711748540356,199.5L123.72242325258432,199.5L127.03908519232085,199.5L130.3557471320574,199.5L133.78015373932774,199.5L137.2092448973604,199.5L140.6383360553931,199.5L144.0674272134258,199.5L147.55273298060655,199.5L150.98182413863924,199.5L154.4109152966719,199.5L157.84469100546693,199.5L161.27378216349962,199.5L164.75908793068038,199.5L168.131964479565,199.5L171.5048410284496,199.5L174.92924763571995,199.5L178.35833879375264,199.5L181.7874299517853,199.5L185.216521109818,199.5L188.70182687699875,199.5L192.13091803503144,199.5L195.56000919306413,199.5L198.99378490185916,199.5L202.42287605989182,199.5L205.90818182707258,199.5L209.22484376680913,199.5L212.54150570654565,199.5L215.965912313816,199.5L219.3950034718487,199.5L222.82409462988136,199.5L226.25318578791405,199.5L229.7384915550948,199.5L233.1675827131275,199.5L236.5966738711602,199.5L240.03044957995522,199.5L243.45954073798788,199.5L246.94484650516864,199.5L250.2615084449052,199.5L253.5781703846417,199.5L257.00257699191206,199.5L260.43166814994476,199.5L263.86075930797745,199.5L267.28985046601014,199.5L270.77515623319084,199.5L274.20424739122353,199.5L277.6333385492562,199.5L281.0671142580513,199.5L284.49620541608397,193.14L287.98151118326473,188.37L291.2981731230012,189.96L294.61483506273777,189.96L298.0392416700081,182.01L301.4683328280408,172.47L304.8974239860735,175.65L308.32651514410617,170.88L311.81182091128693,154.98L315.2409120693196,158.16L318.6700032273523,142.26L322.1037789361473,140.67L325.53287009418,137.49L329.01817586136076,123.17999999999999L332.3910524102454,108.86999999999999L335.76392895913,85.02L339.1883355664003,92.97L342.617426724433,88.19999999999999L346.0465178824657,89.78999999999999L349.4756090404984,69.12L352.96091480767916,70.70999999999998L356.3900059657118,62.75999999999999L359.8190971237445,61.16999999999999L363.25287283253954,67.53L366.6819639905722,73.89L370.167269757753,54.81L373.4839316974895,61.16999999999999L376.80059363722603,53.22L380.22500024449636,40.5L383.65409140252905,43.67999999999998L387.08318256056174,53.22L390.51227371859443,43.67999999999998L393.9975794857752,50.03999999999999L397.4266706438079,54.81L400.8557618018406,53.22L404.28953751063557,57.98999999999998L407.71862866866826,89.78999999999999L411.203934435849,75.47999999999999L414.52059637558557,64.35L417.8372583153221,75.47999999999999L421.26166492259244,78.66L424.69075608062514,83.42999999999999L428.1198472386578,89.78999999999999L431.5489383966905,94.55999999999999L435.0342441638713,104.1L438.4633353219039,94.55999999999999L441.8924264799366,107.28L445.32620218873166,120L448.75529334676435,116.82L452.2405991139451,116.82L455.5572610536816,100.92L458.87392299341815,108.86999999999999L462.2983296006885,108.86999999999999L465.72742075872117,115.22999999999999L469.15651191675386,108.86999999999999L472.58560307478655,113.64L476.0709088419673,126.36" stroke="#db4437" stroke-width="2" fill-opacity="1" fill="none"></path><path d="M0.5,199.5L3.8728765488846073,199.5L7.245753097769215,199.5L10.67015970503956,199.5L14.099250863072244,199.5L17.528342021104926,199.5L20.957433179137613,199.5L24.44273894631837,199.5L27.87183010435106,199.5L31.300921262383742,199.5L34.734696971178764,199.5L38.16378812921145,199.5L41.64909389639221,199.5L44.96575583612874,199.5L48.28241777586527,199.5L51.70682438313562,199.5L55.1359155411683,199.5L58.565006699200985,199.5L61.99409785723367,199.5L65.47940362441443,199.5L68.90849478244712,199.5L72.3375859404798,199.5L75.77136164927482,199.5L79.20045280730751,199.5L82.68575857448826,199.5L86.0024205142248,199.5L89.31908245396133,199.5L92.74348906123167,199.5L96.17258021926436,199.5L99.60167137729704,199.5L103.03076253532973,199.5L106.51606830251049,199.5L109.94515946054317,199.5L113.37425061857586,199.5L116.80802632737088,199.5L120.23711748540356,199.5L123.72242325258432,199.5L127.03908519232085,199.5L130.3557471320574,199.5L133.78015373932774,199.5L137.2092448973604,199.5L140.6383360553931,199.5L144.0674272134258,199.5L147.55273298060655,199.5L150.98182413863924,199.5L154.4109152966719,199.5L157.84469100546693,199.5L161.27378216349962,199.5L164.75908793068038,199.5L168.131964479565,199.5L171.5048410284496,199.5L174.92924763571995,199.5L178.35833879375264,199.5L181.7874299517853,199.5L185.216521109818,199.5L188.70182687699875,199.5L192.13091803503144,199.5L195.56000919306413,199.5L198.99378490185916,199.5L202.42287605989182,199.5L205.90818182707258,199.5L209.22484376680913,199.5L212.54150570654565,199.5L215.965912313816,199.5L219.3950034718487,199.5L222.82409462988136,199.5L226.25318578791405,199.5L229.7384915550948,199.5L233.1675827131275,199.5L236.5966738711602,199.5L240.03044957995522,199.5L243.45954073798788,199.5L246.94484650516864,199.5L250.2615084449052,199.5L253.5781703846417,199.5L257.00257699191206,199.5L260.43166814994476,199.5L263.86075930797745,199.5L267.28985046601014,199.5L270.77515623319084,199.5L274.20424739122353,199.5L277.6333385492562,199.5L281.0671142580513,199.5L284.49620541608397,199.5L287.98151118326473,199.5L291.2981731230012,199.5L294.61483506273777,199.5L298.0392416700081,199.5L301.4683328280408,199.5L304.8974239860735,199.5L308.32651514410617,199.5L311.81182091128693,199.5L315.2409120693196,199.5L318.6700032273523,199.5L322.1037789361473,199.5L325.53287009418,191.55L329.01817586136076,178.82999999999998L332.3910524102454,174.06L335.76392895913,167.7L339.1883355664003,169.29L342.617426724433,162.93L346.0465178824657,154.98L349.4756090404984,153.39L352.96091480767916,153.39L356.3900059657118,137.49L359.8190971237445,150.21L363.25287283253954,156.57L366.6819639905722,145.44L370.167269757753,134.31L373.4839316974895,116.82L376.80059363722603,121.58999999999999L380.22500024449636,121.58999999999999L383.65409140252905,129.54L387.08318256056174,115.22999999999999L390.51227371859443,124.77L393.9975794857752,127.95L397.4266706438079,100.92L400.8557618018406,118.41L404.28953751063557,108.86999999999999L407.71862866866826,108.86999999999999L411.203934435849,100.92L414.52059637558557,99.33L417.8372583153221,85.02L421.26166492259244,85.02L424.69075608062514,96.14999999999999L428.1198472386578,108.86999999999999L431.5489383966905,105.69L435.0342441638713,105.69L438.4633353219039,115.22999999999999L441.8924264799366,108.86999999999999L445.32620218873166,102.50999999999999L448.75529334676435,118.41L452.2405991139451,118.41L455.5572610536816,102.50999999999999L458.87392299341815,91.38L462.2983296006885,112.05L465.72742075872117,118.41L469.15651191675386,116.82L472.58560307478655,120L476.0709088419673,120" stroke="#f4b400" stroke-width="2" fill-opacity="1" fill="none"></path></g></g><g></g><g><g><text text-anchor="middle" x="39.90644101280183" y="213.65" font-family="Arial" font-size="9" stroke="none" stroke-width="0" fill="#999999">2005</text></g><g><text text-anchor="middle" x="121.97977036899394" y="213.65" font-family="Arial" font-size="9" stroke="none" stroke-width="0" fill="#999999">2007</text></g><g><text text-anchor="middle" x="204.1655289434822" y="213.65" font-family="Arial" font-size="9" stroke="none" stroke-width="0" fill="#999999">2009</text></g><g><text text-anchor="middle" x="286.23885829967435" y="213.65" font-family="Arial" font-size="9" stroke="none" stroke-width="0" fill="#999999">2011</text></g><g><text text-anchor="middle" x="368.4246168741626" y="213.65" font-family="Arial" font-size="9" stroke="none" stroke-width="0" fill="#999999">2013</text></g><g><text text-anchor="middle" x="450.4979462303547" y="213.65" font-family="Arial" font-size="9" stroke="none" stroke-width="0" fill="#999999">2015</text></g></g></g><g></g></svg>
