<svg version="1.2" baseProfile="tiny" xmlns="http://www.w3.org/2000/svg" width="480" height="230"><defs id="defs"><clipPath id="_ABSTRACT_RENDERER_ID_0"><rect x="0" y="40" width="480" height="160"></rect></clipPath></defs><g><rect x="0" y="17" width="334" height="11" stroke="none" stroke-width="0" fill-opacity="0" fill="#ffffff"></rect><g><rect x="0" y="17" width="81" height="11" stroke="none" stroke-width="0" fill-opacity="0" fill="#ffffff"></rect><g><text text-anchor="start" x="26" y="26.35" font-family="Arial" font-size="11" stroke="none" stroke-width="0" fill="#222222">backbonejs</text></g><path d="M0,22.5L22,22.5" stroke="#3f85f2" stroke-width="2" fill-opacity="1" fill="none"></path></g><g><rect x="99" y="17" width="77" height="11" stroke="none" stroke-width="0" fill-opacity="0" fill="#ffffff"></rect><g><text text-anchor="start" x="125" y="26.35" font-family="Arial" font-size="11" stroke="none" stroke-width="0" fill="#222222">knockoutjs</text></g><path d="M99,22.5L121,22.5" stroke="#db4437" stroke-width="2" fill-opacity="1" fill="none"></path></g><g><rect x="194" y="17" width="64" height="11" stroke="none" stroke-width="0" fill-opacity="0" fill="#ffffff"></rect><g><text text-anchor="start" x="220" y="26.35" font-family="Arial" font-size="11" stroke="none" stroke-width="0" fill="#222222">emberjs</text></g><path d="M194,22.5L216,22.5" stroke="#f4b400" stroke-width="2" fill-opacity="1" fill="none"></path></g><g><rect x="276" y="17" width="58" height="11" stroke="none" stroke-width="0" fill-opacity="0" fill="#ffffff"></rect><g><text text-anchor="start" x="302" y="26.35" font-family="Arial" font-size="11" stroke="none" stroke-width="0" fill="#222222">reactjs</text></g><path d="M276,22.5L298,22.5" stroke="#0f9d58" stroke-width="2" fill-opacity="1" fill="none"></path></g></g><g><rect x="0" y="40" width="480" height="160" stroke="none" stroke-width="0" fill-opacity="0" fill="#ffffff"></rect><g clip-path="url(#_ABSTRACT_RENDERER_ID_0)"><g><rect x="39" y="40" width="1" height="160" stroke="none" stroke-width="0" fill="#ffffff"></rect><rect x="121" y="40" width="1" height="160" stroke="none" stroke-width="0" fill="#ffffff"></rect><rect x="204" y="40" width="1" height="160" stroke="none" stroke-width="0" fill="#ffffff"></rect><rect x="286" y="40" width="1" height="160" stroke="none" stroke-width="0" fill="#ffffff"></rect><rect x="368" y="40" width="1" height="160" stroke="none" stroke-width="0" fill="#ffffff"></rect><rect x="450" y="40" width="1" height="160" stroke="none" stroke-width="0" fill="#ffffff"></rect><rect x="0" y="199" width="480" height="1" stroke="none" stroke-width="0" fill="#efefef"></rect><rect x="0" y="167" width="480" height="1" stroke="none" stroke-width="0" fill="#efefef"></rect><rect x="0" y="135" width="480" height="1" stroke="none" stroke-width="0" fill="#efefef"></rect><rect x="0" y="104" width="480" height="1" stroke="none" stroke-width="0" fill="#efefef"></rect><rect x="0" y="72" width="480" height="1" stroke="none" stroke-width="0" fill="#efefef"></rect><rect x="0" y="40" width="480" height="1" stroke="none" stroke-width="0" fill="#efefef"></rect></g><g><rect x="0" y="199" width="480" height="1" stroke="none" stroke-width="0" fill="#999999"></rect></g><g><path d="M0.5,199.5L3.8728765488846073,199.5L7.245753097769215,199.5L10.67015970503956,199.5L14.099250863072244,199.5L17.528342021104926,199.5L20.957433179137613,199.5L24.44273894631837,199.5L27.87183010435106,199.5L31.300921262383742,199.5L34.734696971178764,199.5L38.16378812921145,199.5L41.64909389639221,199.5L44.96575583612874,199.5L48.28241777586527,199.5L51.70682438313562,199.5L55.1359155411683,199.5L58.565006699200985,199.5L61.99409785723367,199.5L65.47940362441443,199.5L68.90849478244712,199.5L72.3375859404798,199.5L75.77136164927482,199.5L79.20045280730751,199.5L82.68575857448826,199.5L86.0024205142248,199.5L89.31908245396133,199.5L92.74348906123167,199.5L96.17258021926436,199.5L99.60167137729704,199.5L103.03076253532973,199.5L106.51606830251049,199.5L109.94515946054317,199.5L113.37425061857586,199.5L116.80802632737088,199.5L120.23711748540356,199.5L123.72242325258432,199.5L127.03908519232085,199.5L130.3557471320574,199.5L133.78015373932774,199.5L137.2092448973604,199.5L140.6383360553931,199.5L144.0674272134258,199.5L147.55273298060655,199.5L150.98182413863924,199.5L154.4109152966719,199.5L157.84469100546693,199.5L161.27378216349962,199.5L164.75908793068038,199.5L168.131964479565,199.5L171.5048410284496,199.5L174.92924763571995,199.5L178.35833879375264,199.5L181.7874299517853,199.5L185.216521109818,199.5L188.70182687699875,199.5L192.13091803503144,199.5L195.56000919306413,199.5L198.99378490185916,199.5L202.42287605989182,199.5L205.90818182707258,199.5L209.22484376680913,199.5L212.54150570654565,199.5L215.965912313816,199.5L219.3950034718487,199.5L222.82409462988136,199.5L226.25318578791405,199.5L229.7384915550948,199.5L233.1675827131275,199.5L236.5966738711602,199.5L240.03044957995522,199.5L243.45954073798788,199.5L246.94484650516864,199.5L250.2615084449052,199.5L253.5781703846417,199.5L257.00257699191206,199.5L260.43166814994476,199.5L263.86075930797745,199.5L267.28985046601014,199.5L270.77515623319084,199.5L274.20424739122353,199.5L277.6333385492562,199.5L281.0671142580513,199.5L284.49620541608397,199.5L287.98151118326473,199.5L291.2981731230012,196.32L294.61483506273777,196.32L298.0392416700081,196.32L301.4683328280408,193.14L304.8974239860735,196.32L308.32651514410617,191.55L311.81182091128693,186.78L315.2409120693196,189.96L318.6700032273523,191.55L322.1037789361473,188.37L325.53287009418,180.42L329.01817586136076,182.01L332.3910524102454,180.42L335.76392895913,177.24L339.1883355664003,177.24L342.617426724433,172.47L346.0465178824657,170.88L349.4756090404984,162.93L352.96091480767916,169.29L356.3900059657118,164.51999999999998L359.8190971237445,159.75L363.25287283253954,167.7L366.6819639905722,169.29L370.167269757753,162.93L373.4839316974895,158.16L376.80059363722603,164.51999999999998L380.22500024449636,164.51999999999998L383.65409140252905,167.7L387.08318256056174,162.93L390.51227371859443,169.29L393.9975794857752,167.7L397.4266706438079,169.29L400.8557618018406,162.93L404.28953751063557,162.93L407.71862866866826,170.88L411.203934435849,169.29L414.52059637558557,166.11L417.8372583153221,167.7L421.26166492259244,162.93L424.69075608062514,162.93L428.1198472386578,170.88L431.5489383966905,172.47L435.0342441638713,172.47L438.4633353219039,175.65L441.8924264799366,177.24L445.32620218873166,174.06L448.75529334676435,174.06L452.2405991139451,172.47L455.5572610536816,175.65L458.87392299341815,175.65L462.2983296006885,178.82999999999998L465.72742075872117,177.24L469.15651191675386,178.82999999999998L472.58560307478655,175.65L476.0709088419673,180.42" stroke="#3f85f2" stroke-width="2" fill-opacity="1" fill="none"></path><path d="M0.5,199.5L3.8728765488846073,199.5L7.245753097769215,199.5L10.67015970503956,199.5L14.099250863072244,199.5L17.528342021104926,199.5L20.957433179137613,199.5L24.44273894631837,199.5L27.87183010435106,199.5L31.300921262383742,199.5L34.734696971178764,199.5L38.16378812921145,199.5L41.64909389639221,199.5L44.96575583612874,199.5L48.28241777586527,199.5L51.70682438313562,199.5L55.1359155411683,199.5L58.565006699200985,199.5L61.99409785723367,199.5L65.47940362441443,199.5L68.90849478244712,199.5L72.3375859404798,199.5L75.77136164927482,199.5L79.20045280730751,199.5L82.68575857448826,199.5L86.0024205142248,199.5L89.31908245396133,199.5L92.74348906123167,199.5L96.17258021926436,199.5L99.60167137729704,199.5L103.03076253532973,199.5L106.51606830251049,199.5L109.94515946054317,199.5L113.37425061857586,199.5L116.80802632737088,199.5L120.23711748540356,199.5L123.72242325258432,199.5L127.03908519232085,199.5L130.3557471320574,199.5L133.78015373932774,199.5L137.2092448973604,199.5L140.6383360553931,199.5L144.0674272134258,199.5L147.55273298060655,199.5L150.98182413863924,199.5L154.4109152966719,199.5L157.84469100546693,199.5L161.27378216349962,199.5L164.75908793068038,199.5L168.131964479565,199.5L171.5048410284496,199.5L174.92924763571995,199.5L178.35833879375264,199.5L181.7874299517853,199.5L185.216521109818,199.5L188.70182687699875,199.5L192.13091803503144,199.5L195.56000919306413,199.5L198.99378490185916,199.5L202.42287605989182,199.5L205.90818182707258,199.5L209.22484376680913,199.5L212.54150570654565,199.5L215.965912313816,199.5L219.3950034718487,199.5L222.82409462988136,199.5L226.25318578791405,199.5L229.7384915550948,199.5L233.1675827131275,199.5L236.5966738711602,199.5L240.03044957995522,199.5L243.45954073798788,199.5L246.94484650516864,199.5L250.2615084449052,199.5L253.5781703846417,199.5L257.00257699191206,199.5L260.43166814994476,199.5L263.86075930797745,199.5L267.28985046601014,199.5L270.77515623319084,199.5L274.20424739122353,199.5L277.6333385492562,199.5L281.0671142580513,199.5L284.49620541608397,194.73L287.98151118326473,193.14L291.2981731230012,194.73L294.61483506273777,196.32L298.0392416700081,191.55L301.4683328280408,186.78L304.8974239860735,186.78L308.32651514410617,185.19L311.81182091128693,177.24L315.2409120693196,178.82999999999998L318.6700032273523,175.65L322.1037789361473,172.47L325.53287009418,169.29L329.01817586136076,161.34L332.3910524102454,158.16L335.76392895913,145.44L339.1883355664003,145.44L342.617426724433,143.85L346.0465178824657,143.85L349.4756090404984,137.49L352.96091480767916,135.9L356.3900059657118,132.72L359.8190971237445,134.31L363.25287283253954,134.31L366.6819639905722,139.07999999999998L370.167269757753,127.95L373.4839316974895,127.95L376.80059363722603,129.54L380.22500024449636,123.17999999999999L383.65409140252905,126.36L387.08318256056174,124.77L390.51227371859443,124.77L393.9975794857752,127.95L397.4266706438079,132.72L400.8557618018406,126.36L404.28953751063557,132.72L407.71862866866826,145.44L411.203934435849,135.9L414.52059637558557,134.31L417.8372583153221,139.07999999999998L421.26166492259244,142.26L424.69075608062514,142.26L428.1198472386578,148.62L431.5489383966905,147.03L435.0342441638713,151.8L438.4633353219039,148.62L441.8924264799366,151.8L445.32620218873166,161.34L448.75529334676435,159.75L452.2405991139451,162.93L455.5572610536816,150.21L458.87392299341815,156.57L462.2983296006885,151.8L465.72742075872117,159.75L469.15651191675386,158.16L472.58560307478655,159.75L476.0709088419673,167.7" stroke="#db4437" stroke-width="2" fill-opacity="1" fill="none"></path><path d="M0.5,199.5L3.8728765488846073,199.5L7.245753097769215,199.5L10.67015970503956,199.5L14.099250863072244,199.5L17.528342021104926,199.5L20.957433179137613,199.5L24.44273894631837,199.5L27.87183010435106,199.5L31.300921262383742,199.5L34.734696971178764,199.5L38.16378812921145,199.5L41.64909389639221,199.5L44.96575583612874,199.5L48.28241777586527,199.5L51.70682438313562,199.5L55.1359155411683,199.5L58.565006699200985,199.5L61.99409785723367,199.5L65.47940362441443,199.5L68.90849478244712,199.5L72.3375859404798,199.5L75.77136164927482,199.5L79.20045280730751,199.5L82.68575857448826,199.5L86.0024205142248,199.5L89.31908245396133,199.5L92.74348906123167,199.5L96.17258021926436,199.5L99.60167137729704,199.5L103.03076253532973,199.5L106.51606830251049,199.5L109.94515946054317,199.5L113.37425061857586,199.5L116.80802632737088,199.5L120.23711748540356,199.5L123.72242325258432,199.5L127.03908519232085,199.5L130.3557471320574,199.5L133.78015373932774,199.5L137.2092448973604,199.5L140.6383360553931,199.5L144.0674272134258,199.5L147.55273298060655,199.5L150.98182413863924,199.5L154.4109152966719,199.5L157.84469100546693,199.5L161.27378216349962,199.5L164.75908793068038,199.5L168.131964479565,199.5L171.5048410284496,199.5L174.92924763571995,199.5L178.35833879375264,199.5L181.7874299517853,199.5L185.216521109818,199.5L188.70182687699875,199.5L192.13091803503144,199.5L195.56000919306413,199.5L198.99378490185916,199.5L202.42287605989182,199.5L205.90818182707258,199.5L209.22484376680913,199.5L212.54150570654565,199.5L215.965912313816,199.5L219.3950034718487,199.5L222.82409462988136,199.5L226.25318578791405,199.5L229.7384915550948,199.5L233.1675827131275,199.5L236.5966738711602,199.5L240.03044957995522,199.5L243.45954073798788,199.5L246.94484650516864,199.5L250.2615084449052,199.5L253.5781703846417,199.5L257.00257699191206,199.5L260.43166814994476,199.5L263.86075930797745,199.5L267.28985046601014,199.5L270.77515623319084,199.5L274.20424739122353,199.5L277.6333385492562,199.5L281.0671142580513,199.5L284.49620541608397,199.5L287.98151118326473,199.5L291.2981731230012,199.5L294.61483506273777,199.5L298.0392416700081,199.5L301.4683328280408,199.5L304.8974239860735,199.5L308.32651514410617,199.5L311.81182091128693,199.5L315.2409120693196,199.5L318.6700032273523,199.5L322.1037789361473,199.5L325.53287009418,194.73L329.01817586136076,189.96L332.3910524102454,186.78L335.76392895913,183.6L339.1883355664003,185.19L342.617426724433,182.01L346.0465178824657,177.24L349.4756090404984,177.24L352.96091480767916,177.24L356.3900059657118,169.29L359.8190971237445,175.65L363.25287283253954,178.82999999999998L366.6819639905722,174.06L370.167269757753,167.7L373.4839316974895,159.75L376.80059363722603,161.34L380.22500024449636,161.34L383.65409140252905,166.11L387.08318256056174,158.16L390.51227371859443,162.93L393.9975794857752,164.51999999999998L397.4266706438079,151.8L400.8557618018406,159.75L404.28953751063557,156.57L407.71862866866826,156.57L411.203934435849,151.8L414.52059637558557,150.21L417.8372583153221,143.85L421.26166492259244,143.85L424.69075608062514,148.62L428.1198472386578,156.57L431.5489383966905,153.39L435.0342441638713,153.39L438.4633353219039,158.16L441.8924264799366,154.98L445.32620218873166,151.8L448.75529334676435,159.75L452.2405991139451,159.75L455.5572610536816,151.8L458.87392299341815,147.03L462.2983296006885,158.16L465.72742075872117,159.75L469.15651191675386,159.75L472.58560307478655,161.34L476.0709088419673,161.34" stroke="#f4b400" stroke-width="2" fill-opacity="1" fill="none"></path><path d="M0.5,199.5L3.8728765488846073,199.5L7.245753097769215,199.5L10.67015970503956,199.5L14.099250863072244,199.5L17.528342021104926,199.5L20.957433179137613,199.5L24.44273894631837,199.5L27.87183010435106,199.5L31.300921262383742,199.5L34.734696971178764,199.5L38.16378812921145,199.5L41.64909389639221,199.5L44.96575583612874,199.5L48.28241777586527,199.5L51.70682438313562,199.5L55.1359155411683,199.5L58.565006699200985,199.5L61.99409785723367,199.5L65.47940362441443,199.5L68.90849478244712,199.5L72.3375859404798,199.5L75.77136164927482,199.5L79.20045280730751,199.5L82.68575857448826,199.5L86.0024205142248,199.5L89.31908245396133,199.5L92.74348906123167,199.5L96.17258021926436,199.5L99.60167137729704,199.5L103.03076253532973,199.5L106.51606830251049,199.5L109.94515946054317,199.5L113.37425061857586,199.5L116.80802632737088,199.5L120.23711748540356,199.5L123.72242325258432,199.5L127.03908519232085,199.5L130.3557471320574,199.5L133.78015373932774,199.5L137.2092448973604,199.5L140.6383360553931,199.5L144.0674272134258,199.5L147.55273298060655,199.5L150.98182413863924,199.5L154.4109152966719,199.5L157.84469100546693,199.5L161.27378216349962,199.5L164.75908793068038,199.5L168.131964479565,199.5L171.5048410284496,199.5L174.92924763571995,199.5L178.35833879375264,199.5L181.7874299517853,199.5L185.216521109818,199.5L188.70182687699875,199.5L192.13091803503144,199.5L195.56000919306413,199.5L198.99378490185916,199.5L202.42287605989182,199.5L205.90818182707258,199.5L209.22484376680913,199.5L212.54150570654565,199.5L215.965912313816,199.5L219.3950034718487,199.5L222.82409462988136,199.5L226.25318578791405,199.5L229.7384915550948,199.5L233.1675827131275,199.5L236.5966738711602,199.5L240.03044957995522,199.5L243.45954073798788,199.5L246.94484650516864,199.5L250.2615084449052,199.5L253.5781703846417,199.5L257.00257699191206,199.5L260.43166814994476,199.5L263.86075930797745,199.5L267.28985046601014,199.5L270.77515623319084,199.5L274.20424739122353,199.5L277.6333385492562,199.5L281.0671142580513,199.5L284.49620541608397,199.5L287.98151118326473,199.5L291.2981731230012,199.5L294.61483506273777,199.5L298.0392416700081,199.5L301.4683328280408,199.5L304.8974239860735,199.5L308.32651514410617,199.5L311.81182091128693,199.5L315.2409120693196,199.5L318.6700032273523,199.5L322.1037789361473,199.5L325.53287009418,199.5L329.01817586136076,199.5L332.3910524102454,199.5L335.76392895913,199.5L339.1883355664003,199.5L342.617426724433,199.5L346.0465178824657,199.5L349.4756090404984,199.5L352.96091480767916,199.5L356.3900059657118,199.5L359.8190971237445,199.5L363.25287283253954,199.5L366.6819639905722,199.5L370.167269757753,199.5L373.4839316974895,199.5L376.80059363722603,199.5L380.22500024449636,199.5L383.65409140252905,199.5L387.08318256056174,199.5L390.51227371859443,199.5L393.9975794857752,199.5L397.4266706438079,197.91L400.8557618018406,196.32L404.28953751063557,196.32L407.71862866866826,193.14L411.203934435849,183.6L414.52059637558557,183.6L417.8372583153221,183.6L421.26166492259244,174.06L424.69075608062514,172.47L428.1198472386578,170.88L431.5489383966905,161.34L435.0342441638713,159.75L438.4633353219039,150.21L441.8924264799366,140.67L445.32620218873166,135.9L448.75529334676435,123.17999999999999L452.2405991139451,107.28L455.5572610536816,54.81L458.87392299341815,62.75999999999999L462.2983296006885,65.94L465.72742075872117,64.35L469.15651191675386,57.98999999999998L472.58560307478655,40.5L476.0709088419673,42.09" stroke="#0f9d58" stroke-width="2" fill-opacity="1" fill="none"></path></g></g><g></g><g><g><text text-anchor="middle" x="39.90644101280183" y="213.65" font-family="Arial" font-size="9" stroke="none" stroke-width="0" fill="#999999">2005</text></g><g><text text-anchor="middle" x="121.97977036899394" y="213.65" font-family="Arial" font-size="9" stroke="none" stroke-width="0" fill="#999999">2007</text></g><g><text text-anchor="middle" x="204.1655289434822" y="213.65" font-family="Arial" font-size="9" stroke="none" stroke-width="0" fill="#999999">2009</text></g><g><text text-anchor="middle" x="286.23885829967435" y="213.65" font-family="Arial" font-size="9" stroke="none" stroke-width="0" fill="#999999">2011</text></g><g><text text-anchor="middle" x="368.4246168741626" y="213.65" font-family="Arial" font-size="9" stroke="none" stroke-width="0" fill="#999999">2013</text></g><g><text text-anchor="middle" x="450.4979462303547" y="213.65" font-family="Arial" font-size="9" stroke="none" stroke-width="0" fill="#999999">2015</text></g></g></g><g></g></svg>
