<svg version="1.2" baseProfile="tiny" xmlns="http://www.w3.org/2000/svg" width="480" height="230"><defs id="defs"><clipPath id="_ABSTRACT_RENDERER_ID_0"><rect x="0" y="40" width="480" height="160"></rect></clipPath></defs><g><rect x="0" y="17" width="397" height="11" stroke="none" stroke-width="0" fill-opacity="0" fill="#ffffff"></rect><g><rect x="0" y="17" width="56" height="11" stroke="none" stroke-width="0" fill-opacity="0" fill="#ffffff"></rect><g><text text-anchor="start" x="26" y="26.35" font-family="Arial" font-size="11" stroke="none" stroke-width="0" fill="#222222">jquery</text></g><path d="M0,22.5L22,22.5" stroke="#3f85f2" stroke-width="2" fill-opacity="1" fill="none"></path></g><g><rect x="74" y="17" width="77" height="11" stroke="none" stroke-width="0" fill-opacity="0" fill="#ffffff"></rect><g><text text-anchor="start" x="100" y="26.35" font-family="Arial" font-size="11" stroke="none" stroke-width="0" fill="#222222">knockoutjs</text></g><path d="M74,22.5L96,22.5" stroke="#db4437" stroke-width="2" fill-opacity="1" fill="none"></path></g><g><rect x="169" y="17" width="64" height="11" stroke="none" stroke-width="0" fill-opacity="0" fill="#ffffff"></rect><g><text text-anchor="start" x="195" y="26.35" font-family="Arial" font-size="11" stroke="none" stroke-width="0" fill="#222222">emberjs</text></g><path d="M169,22.5L191,22.5" stroke="#f4b400" stroke-width="2" fill-opacity="1" fill="none"></path></g><g><rect x="251" y="17" width="58" height="11" stroke="none" stroke-width="0" fill-opacity="0" fill="#ffffff"></rect><g><text text-anchor="start" x="277" y="26.35" font-family="Arial" font-size="11" stroke="none" stroke-width="0" fill="#222222">reactjs</text></g><path d="M251,22.5L273,22.5" stroke="#0f9d58" stroke-width="2" fill-opacity="1" fill="none"></path></g><g><rect x="327" y="17" width="70" height="11" stroke="none" stroke-width="0" fill-opacity="0" fill="#ffffff"></rect><g><text text-anchor="start" x="353" y="26.35" font-family="Arial" font-size="11" stroke="none" stroke-width="0" fill="#222222">angularjs</text></g><path d="M327,22.5L349,22.5" stroke="#7e3794" stroke-width="2" fill-opacity="1" fill="none"></path></g></g><g><rect x="0" y="40" width="480" height="160" stroke="none" stroke-width="0" fill-opacity="0" fill="#ffffff"></rect><g clip-path="url(#_ABSTRACT_RENDERER_ID_0)"><g><rect x="39" y="40" width="1" height="160" stroke="none" stroke-width="0" fill="#ffffff"></rect><rect x="121" y="40" width="1" height="160" stroke="none" stroke-width="0" fill="#ffffff"></rect><rect x="204" y="40" width="1" height="160" stroke="none" stroke-width="0" fill="#ffffff"></rect><rect x="286" y="40" width="1" height="160" stroke="none" stroke-width="0" fill="#ffffff"></rect><rect x="368" y="40" width="1" height="160" stroke="none" stroke-width="0" fill="#ffffff"></rect><rect x="450" y="40" width="1" height="160" stroke="none" stroke-width="0" fill="#ffffff"></rect><rect x="0" y="199" width="480" height="1" stroke="none" stroke-width="0" fill="#efefef"></rect><rect x="0" y="167" width="480" height="1" stroke="none" stroke-width="0" fill="#efefef"></rect><rect x="0" y="135" width="480" height="1" stroke="none" stroke-width="0" fill="#efefef"></rect><rect x="0" y="104" width="480" height="1" stroke="none" stroke-width="0" fill="#efefef"></rect><rect x="0" y="72" width="480" height="1" stroke="none" stroke-width="0" fill="#efefef"></rect><rect x="0" y="40" width="480" height="1" stroke="none" stroke-width="0" fill="#efefef"></rect></g><g><rect x="0" y="199" width="480" height="1" stroke="none" stroke-width="0" fill="#999999"></rect></g><g><path d="M0.5,199.5L3.8728765488846073,199.5L7.245753097769215,199.5L10.67015970503956,199.5L14.099250863072244,199.5L17.528342021104926,199.5L20.957433179137613,199.5L24.44273894631837,199.5L27.87183010435106,199.5L31.300921262383742,199.5L34.734696971178764,199.5L38.16378812921145,199.5L41.64909389639221,199.5L44.96575583612874,199.5L48.28241777586527,199.5L51.70682438313562,199.5L55.1359155411683,199.5L58.565006699200985,199.5L61.99409785723367,199.5L65.47940362441443,199.5L68.90849478244712,199.5L72.3375859404798,199.5L75.77136164927482,199.5L79.20045280730751,199.5L82.68575857448826,199.5L86.0024205142248,199.5L89.31908245396133,199.5L92.74348906123167,199.5L96.17258021926436,199.5L99.60167137729704,199.5L103.03076253532973,197.91L106.51606830251049,197.91L109.94515946054317,197.91L113.37425061857586,196.32L116.80802632737088,196.32L120.23711748540356,196.32L123.72242325258432,194.73L127.03908519232085,194.73L130.3557471320574,193.14L133.78015373932774,193.14L137.2092448973604,191.55L140.6383360553931,189.96L144.0674272134258,186.78L147.55273298060655,186.78L150.98182413863924,185.19L154.4109152966719,185.19L157.84469100546693,180.42L161.27378216349962,183.6L164.75908793068038,182.01L168.131964479565,180.42L171.5048410284496,178.82999999999998L174.92924763571995,175.65L178.35833879375264,174.06L181.7874299517853,169.29L185.216521109818,166.11L188.70182687699875,166.11L192.13091803503144,159.75L195.56000919306413,156.57L198.99378490185916,154.98L202.42287605989182,154.98L205.90818182707258,150.21L209.22484376680913,139.07999999999998L212.54150570654565,135.9L215.965912313816,127.95L219.3950034718487,129.54L222.82409462988136,124.77L226.25318578791405,118.41L229.7384915550948,116.82L233.1675827131275,115.22999999999999L236.5966738711602,123.17999999999999L240.03044957995522,120L243.45954073798788,121.58999999999999L246.94484650516864,118.41L250.2615084449052,107.28L253.5781703846417,96.14999999999999L257.00257699191206,96.14999999999999L260.43166814994476,94.55999999999999L263.86075930797745,91.38L267.28985046601014,92.97L270.77515623319084,92.97L274.20424739122353,89.78999999999999L277.6333385492562,85.02L281.0671142580513,85.02L284.49620541608397,89.78999999999999L287.98151118326473,85.02L291.2981731230012,73.89L294.61483506273777,65.94L298.0392416700081,65.94L301.4683328280408,64.35L304.8974239860735,59.579999999999984L308.32651514410617,59.579999999999984L311.81182091128693,57.98999999999998L315.2409120693196,57.98999999999998L318.6700032273523,64.35L322.1037789361473,53.22L325.53287009418,64.35L329.01817586136076,65.94L332.3910524102454,48.44999999999999L335.76392895913,40.5L339.1883355664003,50.03999999999999L342.617426724433,45.26999999999998L346.0465178824657,48.44999999999999L349.4756090404984,43.67999999999998L352.96091480767916,45.26999999999998L356.3900059657118,48.44999999999999L359.8190971237445,50.03999999999999L363.25287283253954,53.22L366.6819639905722,69.12L370.167269757753,59.579999999999984L373.4839316974895,48.44999999999999L376.80059363722603,48.44999999999999L380.22500024449636,53.22L383.65409140252905,50.03999999999999L387.08318256056174,53.22L390.51227371859443,48.44999999999999L393.9975794857752,57.98999999999998L397.4266706438079,51.629999999999995L400.8557618018406,51.629999999999995L404.28953751063557,54.81L407.71862866866826,73.89L411.203934435849,70.70999999999998L414.52059637558557,56.400000000000006L417.8372583153221,64.35L421.26166492259244,59.579999999999984L424.69075608062514,69.12L428.1198472386578,73.89L431.5489383966905,69.12L435.0342441638713,78.66L438.4633353219039,77.07L441.8924264799366,77.07L445.32620218873166,83.42999999999999L448.75529334676435,88.19999999999999L452.2405991139451,92.97L455.5572610536816,83.42999999999999L458.87392299341815,78.66L462.2983296006885,83.42999999999999L465.72742075872117,89.78999999999999L469.15651191675386,86.61L472.58560307478655,91.38L476.0709088419673,97.74" stroke="#3f85f2" stroke-width="2" fill-opacity="1" fill="none"></path><path d="M0.5,199.5L3.8728765488846073,199.5L7.245753097769215,199.5L10.67015970503956,199.5L14.099250863072244,199.5L17.528342021104926,199.5L20.957433179137613,199.5L24.44273894631837,199.5L27.87183010435106,199.5L31.300921262383742,199.5L34.734696971178764,199.5L38.16378812921145,199.5L41.64909389639221,199.5L44.96575583612874,199.5L48.28241777586527,199.5L51.70682438313562,199.5L55.1359155411683,199.5L58.565006699200985,199.5L61.99409785723367,199.5L65.47940362441443,199.5L68.90849478244712,199.5L72.3375859404798,199.5L75.77136164927482,199.5L79.20045280730751,199.5L82.68575857448826,199.5L86.0024205142248,199.5L89.31908245396133,199.5L92.74348906123167,199.5L96.17258021926436,199.5L99.60167137729704,199.5L103.03076253532973,199.5L106.51606830251049,199.5L109.94515946054317,199.5L113.37425061857586,199.5L116.80802632737088,199.5L120.23711748540356,199.5L123.72242325258432,199.5L127.03908519232085,199.5L130.3557471320574,199.5L133.78015373932774,199.5L137.2092448973604,199.5L140.6383360553931,199.5L144.0674272134258,199.5L147.55273298060655,199.5L150.98182413863924,199.5L154.4109152966719,199.5L157.84469100546693,199.5L161.27378216349962,199.5L164.75908793068038,199.5L168.131964479565,199.5L171.5048410284496,199.5L174.92924763571995,199.5L178.35833879375264,199.5L181.7874299517853,199.5L185.216521109818,199.5L188.70182687699875,199.5L192.13091803503144,199.5L195.56000919306413,199.5L198.99378490185916,199.5L202.42287605989182,199.5L205.90818182707258,199.5L209.22484376680913,199.5L212.54150570654565,199.5L215.965912313816,199.5L219.3950034718487,199.5L222.82409462988136,199.5L226.25318578791405,199.5L229.7384915550948,199.5L233.1675827131275,199.5L236.5966738711602,199.5L240.03044957995522,199.5L243.45954073798788,199.5L246.94484650516864,199.5L250.2615084449052,199.5L253.5781703846417,199.5L257.00257699191206,199.5L260.43166814994476,199.5L263.86075930797745,199.5L267.28985046601014,199.5L270.77515623319084,199.5L274.20424739122353,199.5L277.6333385492562,199.5L281.0671142580513,199.5L284.49620541608397,199.5L287.98151118326473,199.5L291.2981731230012,199.5L294.61483506273777,199.5L298.0392416700081,199.5L301.4683328280408,199.5L304.8974239860735,199.5L308.32651514410617,199.5L311.81182091128693,199.5L315.2409120693196,199.5L318.6700032273523,199.5L322.1037789361473,199.5L325.53287009418,199.5L329.01817586136076,199.5L332.3910524102454,199.5L335.76392895913,199.5L339.1883355664003,199.5L342.617426724433,199.5L346.0465178824657,199.5L349.4756090404984,199.5L352.96091480767916,199.5L356.3900059657118,199.5L359.8190971237445,199.5L363.25287283253954,199.5L366.6819639905722,199.5L370.167269757753,199.5L373.4839316974895,199.5L376.80059363722603,199.5L380.22500024449636,199.5L383.65409140252905,199.5L387.08318256056174,199.5L390.51227371859443,199.5L393.9975794857752,199.5L397.4266706438079,199.5L400.8557618018406,199.5L404.28953751063557,199.5L407.71862866866826,199.5L411.203934435849,199.5L414.52059637558557,199.5L417.8372583153221,199.5L421.26166492259244,199.5L424.69075608062514,199.5L428.1198472386578,199.5L431.5489383966905,199.5L435.0342441638713,199.5L438.4633353219039,199.5L441.8924264799366,199.5L445.32620218873166,199.5L448.75529334676435,199.5L452.2405991139451,199.5L455.5572610536816,199.5L458.87392299341815,199.5L462.2983296006885,199.5L465.72742075872117,199.5L469.15651191675386,199.5L472.58560307478655,199.5L476.0709088419673,199.5" stroke="#db4437" stroke-width="2" fill-opacity="1" fill="none"></path><path d="M0.5,199.5L3.8728765488846073,199.5L7.245753097769215,199.5L10.67015970503956,199.5L14.099250863072244,199.5L17.528342021104926,199.5L20.957433179137613,199.5L24.44273894631837,199.5L27.87183010435106,199.5L31.300921262383742,199.5L34.734696971178764,199.5L38.16378812921145,199.5L41.64909389639221,199.5L44.96575583612874,199.5L48.28241777586527,199.5L51.70682438313562,199.5L55.1359155411683,199.5L58.565006699200985,199.5L61.99409785723367,199.5L65.47940362441443,199.5L68.90849478244712,199.5L72.3375859404798,199.5L75.77136164927482,199.5L79.20045280730751,199.5L82.68575857448826,199.5L86.0024205142248,199.5L89.31908245396133,199.5L92.74348906123167,199.5L96.17258021926436,199.5L99.60167137729704,199.5L103.03076253532973,199.5L106.51606830251049,199.5L109.94515946054317,199.5L113.37425061857586,199.5L116.80802632737088,199.5L120.23711748540356,199.5L123.72242325258432,199.5L127.03908519232085,199.5L130.3557471320574,199.5L133.78015373932774,199.5L137.2092448973604,199.5L140.6383360553931,199.5L144.0674272134258,199.5L147.55273298060655,199.5L150.98182413863924,199.5L154.4109152966719,199.5L157.84469100546693,199.5L161.27378216349962,199.5L164.75908793068038,199.5L168.131964479565,199.5L171.5048410284496,199.5L174.92924763571995,199.5L178.35833879375264,199.5L181.7874299517853,199.5L185.216521109818,199.5L188.70182687699875,199.5L192.13091803503144,199.5L195.56000919306413,199.5L198.99378490185916,199.5L202.42287605989182,199.5L205.90818182707258,199.5L209.22484376680913,199.5L212.54150570654565,199.5L215.965912313816,199.5L219.3950034718487,199.5L222.82409462988136,199.5L226.25318578791405,199.5L229.7384915550948,199.5L233.1675827131275,199.5L236.5966738711602,199.5L240.03044957995522,199.5L243.45954073798788,199.5L246.94484650516864,199.5L250.2615084449052,199.5L253.5781703846417,199.5L257.00257699191206,199.5L260.43166814994476,199.5L263.86075930797745,199.5L267.28985046601014,199.5L270.77515623319084,199.5L274.20424739122353,199.5L277.6333385492562,199.5L281.0671142580513,199.5L284.49620541608397,199.5L287.98151118326473,199.5L291.2981731230012,199.5L294.61483506273777,199.5L298.0392416700081,199.5L301.4683328280408,199.5L304.8974239860735,199.5L308.32651514410617,199.5L311.81182091128693,199.5L315.2409120693196,199.5L318.6700032273523,199.5L322.1037789361473,199.5L325.53287009418,199.5L329.01817586136076,199.5L332.3910524102454,199.5L335.76392895913,199.5L339.1883355664003,199.5L342.617426724433,199.5L346.0465178824657,199.5L349.4756090404984,199.5L352.96091480767916,199.5L356.3900059657118,199.5L359.8190971237445,199.5L363.25287283253954,199.5L366.6819639905722,199.5L370.167269757753,199.5L373.4839316974895,199.5L376.80059363722603,199.5L380.22500024449636,199.5L383.65409140252905,199.5L387.08318256056174,199.5L390.51227371859443,199.5L393.9975794857752,199.5L397.4266706438079,199.5L400.8557618018406,199.5L404.28953751063557,199.5L407.71862866866826,199.5L411.203934435849,199.5L414.52059637558557,199.5L417.8372583153221,199.5L421.26166492259244,199.5L424.69075608062514,199.5L428.1198472386578,199.5L431.5489383966905,199.5L435.0342441638713,199.5L438.4633353219039,199.5L441.8924264799366,199.5L445.32620218873166,199.5L448.75529334676435,199.5L452.2405991139451,199.5L455.5572610536816,199.5L458.87392299341815,199.5L462.2983296006885,199.5L465.72742075872117,199.5L469.15651191675386,199.5L472.58560307478655,199.5L476.0709088419673,199.5" stroke="#f4b400" stroke-width="2" fill-opacity="1" fill="none"></path><path d="M0.5,199.5L3.8728765488846073,199.5L7.245753097769215,199.5L10.67015970503956,199.5L14.099250863072244,199.5L17.528342021104926,199.5L20.957433179137613,199.5L24.44273894631837,199.5L27.87183010435106,199.5L31.300921262383742,199.5L34.734696971178764,199.5L38.16378812921145,199.5L41.64909389639221,199.5L44.96575583612874,199.5L48.28241777586527,199.5L51.70682438313562,199.5L55.1359155411683,199.5L58.565006699200985,199.5L61.99409785723367,199.5L65.47940362441443,199.5L68.90849478244712,199.5L72.3375859404798,199.5L75.77136164927482,199.5L79.20045280730751,199.5L82.68575857448826,199.5L86.0024205142248,199.5L89.31908245396133,199.5L92.74348906123167,199.5L96.17258021926436,199.5L99.60167137729704,199.5L103.03076253532973,199.5L106.51606830251049,199.5L109.94515946054317,199.5L113.37425061857586,199.5L116.80802632737088,199.5L120.23711748540356,199.5L123.72242325258432,199.5L127.03908519232085,199.5L130.3557471320574,199.5L133.78015373932774,199.5L137.2092448973604,199.5L140.6383360553931,199.5L144.0674272134258,199.5L147.55273298060655,199.5L150.98182413863924,199.5L154.4109152966719,199.5L157.84469100546693,199.5L161.27378216349962,199.5L164.75908793068038,199.5L168.131964479565,199.5L171.5048410284496,199.5L174.92924763571995,199.5L178.35833879375264,199.5L181.7874299517853,199.5L185.216521109818,199.5L188.70182687699875,199.5L192.13091803503144,199.5L195.56000919306413,199.5L198.99378490185916,199.5L202.42287605989182,199.5L205.90818182707258,199.5L209.22484376680913,199.5L212.54150570654565,199.5L215.965912313816,199.5L219.3950034718487,199.5L222.82409462988136,199.5L226.25318578791405,199.5L229.7384915550948,199.5L233.1675827131275,199.5L236.5966738711602,199.5L240.03044957995522,199.5L243.45954073798788,199.5L246.94484650516864,199.5L250.2615084449052,199.5L253.5781703846417,199.5L257.00257699191206,199.5L260.43166814994476,199.5L263.86075930797745,199.5L267.28985046601014,199.5L270.77515623319084,199.5L274.20424739122353,199.5L277.6333385492562,199.5L281.0671142580513,199.5L284.49620541608397,199.5L287.98151118326473,199.5L291.2981731230012,199.5L294.61483506273777,199.5L298.0392416700081,199.5L301.4683328280408,199.5L304.8974239860735,199.5L308.32651514410617,199.5L311.81182091128693,199.5L315.2409120693196,199.5L318.6700032273523,199.5L322.1037789361473,199.5L325.53287009418,199.5L329.01817586136076,199.5L332.3910524102454,199.5L335.76392895913,199.5L339.1883355664003,199.5L342.617426724433,199.5L346.0465178824657,199.5L349.4756090404984,199.5L352.96091480767916,199.5L356.3900059657118,199.5L359.8190971237445,199.5L363.25287283253954,199.5L366.6819639905722,199.5L370.167269757753,199.5L373.4839316974895,199.5L376.80059363722603,199.5L380.22500024449636,199.5L383.65409140252905,199.5L387.08318256056174,199.5L390.51227371859443,199.5L393.9975794857752,199.5L397.4266706438079,199.5L400.8557618018406,199.5L404.28953751063557,199.5L407.71862866866826,199.5L411.203934435849,199.5L414.52059637558557,199.5L417.8372583153221,199.5L421.26166492259244,199.5L424.69075608062514,199.5L428.1198472386578,199.5L431.5489383966905,199.5L435.0342441638713,199.5L438.4633353219039,199.5L441.8924264799366,199.5L445.32620218873166,199.5L448.75529334676435,199.5L452.2405991139451,199.5L455.5572610536816,197.91L458.87392299341815,197.91L462.2983296006885,197.91L465.72742075872117,197.91L469.15651191675386,197.91L472.58560307478655,197.91L476.0709088419673,197.91" stroke="#0f9d58" stroke-width="2" fill-opacity="1" fill="none"></path><path d="M0.5,199.5L3.8728765488846073,199.5L7.245753097769215,199.5L10.67015970503956,199.5L14.099250863072244,199.5L17.528342021104926,199.5L20.957433179137613,199.5L24.44273894631837,199.5L27.87183010435106,199.5L31.300921262383742,199.5L34.734696971178764,199.5L38.16378812921145,199.5L41.64909389639221,199.5L44.96575583612874,199.5L48.28241777586527,199.5L51.70682438313562,199.5L55.1359155411683,199.5L58.565006699200985,199.5L61.99409785723367,199.5L65.47940362441443,199.5L68.90849478244712,199.5L72.3375859404798,199.5L75.77136164927482,199.5L79.20045280730751,199.5L82.68575857448826,199.5L86.0024205142248,199.5L89.31908245396133,199.5L92.74348906123167,199.5L96.17258021926436,199.5L99.60167137729704,199.5L103.03076253532973,199.5L106.51606830251049,199.5L109.94515946054317,199.5L113.37425061857586,199.5L116.80802632737088,199.5L120.23711748540356,199.5L123.72242325258432,199.5L127.03908519232085,199.5L130.3557471320574,199.5L133.78015373932774,199.5L137.2092448973604,199.5L140.6383360553931,199.5L144.0674272134258,199.5L147.55273298060655,199.5L150.98182413863924,199.5L154.4109152966719,199.5L157.84469100546693,199.5L161.27378216349962,199.5L164.75908793068038,199.5L168.131964479565,199.5L171.5048410284496,199.5L174.92924763571995,199.5L178.35833879375264,199.5L181.7874299517853,199.5L185.216521109818,199.5L188.70182687699875,199.5L192.13091803503144,199.5L195.56000919306413,199.5L198.99378490185916,199.5L202.42287605989182,199.5L205.90818182707258,199.5L209.22484376680913,199.5L212.54150570654565,199.5L215.965912313816,199.5L219.3950034718487,199.5L222.82409462988136,199.5L226.25318578791405,199.5L229.7384915550948,199.5L233.1675827131275,199.5L236.5966738711602,199.5L240.03044957995522,199.5L243.45954073798788,199.5L246.94484650516864,199.5L250.2615084449052,199.5L253.5781703846417,199.5L257.00257699191206,199.5L260.43166814994476,199.5L263.86075930797745,199.5L267.28985046601014,199.5L270.77515623319084,199.5L274.20424739122353,199.5L277.6333385492562,199.5L281.0671142580513,199.5L284.49620541608397,199.5L287.98151118326473,199.5L291.2981731230012,199.5L294.61483506273777,199.5L298.0392416700081,199.5L301.4683328280408,199.5L304.8974239860735,199.5L308.32651514410617,199.5L311.81182091128693,199.5L315.2409120693196,199.5L318.6700032273523,199.5L322.1037789361473,199.5L325.53287009418,199.5L329.01817586136076,199.5L332.3910524102454,199.5L335.76392895913,199.5L339.1883355664003,199.5L342.617426724433,199.5L346.0465178824657,199.5L349.4756090404984,199.5L352.96091480767916,197.91L356.3900059657118,197.91L359.8190971237445,197.91L363.25287283253954,197.91L366.6819639905722,197.91L370.167269757753,197.91L373.4839316974895,196.32L376.80059363722603,196.32L380.22500024449636,196.32L383.65409140252905,194.73L387.08318256056174,194.73L390.51227371859443,193.14L393.9975794857752,193.14L397.4266706438079,193.14L400.8557618018406,191.55L404.28953751063557,191.55L407.71862866866826,191.55L411.203934435849,189.96L414.52059637558557,188.37L417.8372583153221,188.37L421.26166492259244,186.78L424.69075608062514,186.78L428.1198472386578,185.19L431.5489383966905,183.6L435.0342441638713,183.6L438.4633353219039,182.01L441.8924264799366,182.01L445.32620218873166,182.01L448.75529334676435,182.01L452.2405991139451,182.01L455.5572610536816,180.42L458.87392299341815,178.82999999999998L462.2983296006885,180.42L465.72742075872117,178.82999999999998L469.15651191675386,178.82999999999998L472.58560307478655,178.82999999999998L476.0709088419673,180.42" stroke="#7e3794" stroke-width="2" fill-opacity="1" fill="none"></path></g></g><g></g><g><g><text text-anchor="middle" x="39.90644101280183" y="213.65" font-family="Arial" font-size="9" stroke="none" stroke-width="0" fill="#999999">2005</text></g><g><text text-anchor="middle" x="121.97977036899394" y="213.65" font-family="Arial" font-size="9" stroke="none" stroke-width="0" fill="#999999">2007</text></g><g><text text-anchor="middle" x="204.1655289434822" y="213.65" font-family="Arial" font-size="9" stroke="none" stroke-width="0" fill="#999999">2009</text></g><g><text text-anchor="middle" x="286.23885829967435" y="213.65" font-family="Arial" font-size="9" stroke="none" stroke-width="0" fill="#999999">2011</text></g><g><text text-anchor="middle" x="368.4246168741626" y="213.65" font-family="Arial" font-size="9" stroke="none" stroke-width="0" fill="#999999">2013</text></g><g><text text-anchor="middle" x="450.4979462303547" y="213.65" font-family="Arial" font-size="9" stroke="none" stroke-width="0" fill="#999999">2015</text></g></g></g><g></g></svg>
