<svg version="1.2" baseProfile="tiny" xmlns="http://www.w3.org/2000/svg" width="480" height="230"><defs id="defs"><clipPath id="_ABSTRACT_RENDERER_ID_0"><rect x="0" y="40" width="480" height="160"></rect></clipPath></defs><g><rect x="0" y="17" width="146" height="11" stroke="none" stroke-width="0" fill-opacity="0" fill="#ffffff"></rect><g><rect x="0" y="17" width="45" height="11" stroke="none" stroke-width="0" fill-opacity="0" fill="#ffffff"></rect><g><text text-anchor="start" x="15" y="26.35" font-family="Arial" font-size="11" stroke="none" stroke-width="0" fill="#222222">jquery</text></g><rect x="0" y="17" width="11" height="11" stroke="none" stroke-width="0" fill="#3f85f2"></rect></g><g><rect x="63" y="17" width="36" height="11" stroke="none" stroke-width="0" fill-opacity="0" fill="#ffffff"></rect><g><text text-anchor="start" x="78" y="26.35" font-family="Arial" font-size="11" stroke="none" stroke-width="0" fill="#222222">dojo</text></g><rect x="63" y="17" width="11" height="11" stroke="none" stroke-width="0" fill="#db4437"></rect></g><g><rect x="117" y="17" width="29" height="11" stroke="none" stroke-width="0" fill-opacity="0" fill="#ffffff"></rect><g><text text-anchor="start" x="132" y="26.35" font-family="Arial" font-size="11" stroke="none" stroke-width="0" fill="#222222">yui</text></g><rect x="117" y="17" width="11" height="11" stroke="none" stroke-width="0" fill="#f4b400"></rect></g></g><g><rect x="0" y="40" width="480" height="160" stroke="none" stroke-width="0" fill-opacity="0" fill="#ffffff"></rect><g clip-path="url(#_ABSTRACT_RENDERER_ID_0)"><g><rect x="40" y="40" width="1" height="160" stroke="none" stroke-width="0" fill="#ffffff"></rect><rect x="122" y="40" width="1" height="160" stroke="none" stroke-width="0" fill="#ffffff"></rect><rect x="205" y="40" width="1" height="160" stroke="none" stroke-width="0" fill="#ffffff"></rect><rect x="288" y="40" width="1" height="160" stroke="none" stroke-width="0" fill="#ffffff"></rect><rect x="371" y="40" width="1" height="160" stroke="none" stroke-width="0" fill="#ffffff"></rect><rect x="453" y="40" width="1" height="160" stroke="none" stroke-width="0" fill="#ffffff"></rect><rect x="0" y="199" width="480" height="1" stroke="none" stroke-width="0" fill="#efefef"></rect><rect x="0" y="167" width="480" height="1" stroke="none" stroke-width="0" fill="#efefef"></rect><rect x="0" y="135" width="480" height="1" stroke="none" stroke-width="0" fill="#efefef"></rect><rect x="0" y="104" width="480" height="1" stroke="none" stroke-width="0" fill="#efefef"></rect><rect x="0" y="72" width="480" height="1" stroke="none" stroke-width="0" fill="#efefef"></rect><rect x="0" y="40" width="480" height="1" stroke="none" stroke-width="0" fill="#efefef"></rect></g><g><rect x="0" y="40" width="1" height="160" stroke="none" stroke-width="0" fill="#ffffff"></rect><rect x="0" y="199" width="480" height="1" stroke="none" stroke-width="0" fill="#999999"></rect></g><g><path d="M0.5,199.5L3.8971965838907003,199.5L7.294393167781401,199.5L10.74349136614821,199.5L14.197307893103755,199.5L17.6511244200593,199.5L21.104940947014846,199.5L24.615377417035237,199.5L28.069193943990783,199.5L31.52301047094633,199.5L34.98154532649061,199.5L38.43536185344615,199.5L41.94579832346655,199.5L45.2863749642924,199.5L48.62695160511826,199.5L52.07604980348506,199.5L55.52986633044061,199.5L58.983682857396154,199.5L62.4374993843517,199.5L65.94793585437209,199.5L69.40175238132764,199.5L72.85556890828319,199.5L76.31410376382746,199.5L79.76792029078301,199.5L83.2783567608034,199.5L86.61893340162926,199.5L89.95951004245511,199.5L93.40860824082192,199.5L96.86242476777747,199.5L100.31624129473302,199.5L103.77005782168855,197.91L107.28049429170895,197.91L110.7343108186645,197.91L114.18812734562005,196.32L117.64666220116432,196.32L121.10047872811987,196.32L124.61091519814026,194.73L127.95149183896612,194.73L131.29206847979196,193.14L134.74116667815878,193.14L138.1949832051143,191.55L141.64879973206988,189.96L145.1026162590254,188.37L148.61305272904582,186.78L152.06686925600135,185.19L155.5206857829569,183.6L158.97922063850118,182.01L162.4330371654567,182.01L165.94347363547712,182.01L169.3406702193678,180.42L172.73786680325853,178.82999999999998L176.1869650016253,175.65L179.64078152858087,174.06L183.0945980555364,169.29L186.54841458249197,166.11L190.05885105251235,166.11L193.5126675794679,159.75L196.96648410642345,156.57L200.42501896196774,154.98L203.87883548892327,154.98L207.38927195894365,148.62L210.72984859976953,139.07999999999998L214.07042524059537,134.31L217.51952343896218,129.54L220.97333996591772,131.13L224.42715649287328,123.17999999999999L227.88097301982882,118.41L231.3914094898492,116.82L234.84522601680476,115.22999999999999L238.2990425437603,123.17999999999999L241.75757739930458,120L245.21139392626011,120L248.72183039628052,118.41L252.06240703710637,107.28L255.40298367793224,96.14999999999999L258.85208187629905,94.55999999999999L262.30589840325456,92.97L265.7597149302101,91.38L269.2135314571657,92.97L272.72396792718604,92.97L276.1777844541416,89.78999999999999L279.63160098109717,83.42999999999999L283.0901358366414,85.02L286.543952363597,89.78999999999999L290.0543888336174,88.19999999999999L293.3949654744432,73.89L296.7355421152691,65.94L300.1846403136359,65.94L303.63845684059146,64.35L307.09227336754697,61.16999999999999L310.54608989450253,61.16999999999999L314.05652636452294,59.579999999999984L317.51034289147844,56.400000000000006L320.964159418434,67.53L324.42269427397827,54.81L327.87651080093383,65.94L331.38694727095424,65.94L334.78414385484496,46.859999999999985L338.1813404387356,40.5L341.63043863710243,50.03999999999999L345.084255164058,42.09L348.53807169101356,48.44999999999999L351.99188821796906,43.67999999999998L355.50232468798947,45.26999999999998L358.95614121494503,45.26999999999998L362.40995774190054,46.859999999999985L365.86849259744486,53.22L369.32230912440036,69.12L372.83274559442077,62.75999999999999L376.17332223524664,50.03999999999999L379.51389887607246,46.859999999999985L382.9629970744393,50.03999999999999L386.41681360139484,51.629999999999995L389.8706301283504,54.81L393.3244466553059,50.03999999999999L396.8348831253263,57.98999999999998L400.2886996522819,54.81L403.74251617923744,51.629999999999995L407.2010510347817,56.400000000000006L410.65486756173726,75.47999999999999L414.1653040317576,72.3L417.5058806725835,59.579999999999984L420.84645731340936,64.35L424.2955555117762,61.16999999999999L427.7493720387317,65.94L431.20318856568724,75.47999999999999L434.6570050926428,69.12L438.16744156266316,78.66L441.6212580896187,75.47999999999999L445.0750746165743,80.25L448.53360947211854,81.83999999999999L451.9874259990741,86.61L455.4978624690945,94.55999999999999L458.83843910992033,85.02L462.1790157507462,81.83999999999999L465.628113949113,86.61L469.0819304760686,88.19999999999999L472.5357470030241,86.61L475.98956352997965,92.97L479.50000000000006,148.62" stroke="#3f85f2" stroke-width="2" fill-opacity="1" fill="none"></path><path d="M0.5,188.37L3.8971965838907003,188.37L7.294393167781401,189.96L10.74349136614821,189.96L14.197307893103755,189.96L17.6511244200593,189.96L21.104940947014846,189.96L24.615377417035237,188.37L28.069193943990783,188.37L31.52301047094633,189.96L34.98154532649061,191.55L38.43536185344615,191.55L41.94579832346655,189.96L45.2863749642924,191.55L48.62695160511826,191.55L52.07604980348506,189.96L55.52986633044061,189.96L58.983682857396154,189.96L62.4374993843517,191.55L65.94793585437209,189.96L69.40175238132764,189.96L72.85556890828319,189.96L76.31410376382746,189.96L79.76792029078301,189.96L83.2783567608034,189.96L86.61893340162926,188.37L89.95951004245511,189.96L93.40860824082192,188.37L96.86242476777747,185.19L100.31624129473302,183.6L103.77005782168855,185.19L107.28049429170895,182.01L110.7343108186645,183.6L114.18812734562005,183.6L117.64666220116432,182.01L121.10047872811987,183.6L124.61091519814026,183.6L127.95149183896612,183.6L131.29206847979196,183.6L134.74116667815878,183.6L138.1949832051143,182.01L141.64879973206988,178.82999999999998L145.1026162590254,172.47L148.61305272904582,169.29L152.06686925600135,166.11L155.5206857829569,159.75L158.97922063850118,159.75L162.4330371654567,161.34L165.94347363547712,158.16L169.3406702193678,156.57L172.73786680325853,161.34L176.1869650016253,175.65L179.64078152858087,183.6L183.0945980555364,182.01L186.54841458249197,182.01L190.05885105251235,183.6L193.5126675794679,183.6L196.96648410642345,183.6L200.42501896196774,183.6L203.87883548892327,185.19L207.38927195894365,185.19L210.72984859976953,183.6L214.07042524059537,185.19L217.51952343896218,185.19L220.97333996591772,185.19L224.42715649287328,185.19L227.88097301982882,185.19L231.3914094898492,185.19L234.84522601680476,185.19L238.2990425437603,186.78L241.75757739930458,186.78L245.21139392626011,188.37L248.72183039628052,186.78L252.06240703710637,188.37L255.40298367793224,186.78L258.85208187629905,186.78L262.30589840325456,186.78L265.7597149302101,186.78L269.2135314571657,188.37L272.72396792718604,188.37L276.1777844541416,188.37L279.63160098109717,188.37L283.0901358366414,188.37L286.543952363597,188.37L290.0543888336174,188.37L293.3949654744432,186.78L296.7355421152691,188.37L300.1846403136359,188.37L303.63845684059146,188.37L307.09227336754697,188.37L310.54608989450253,188.37L314.05652636452294,189.96L317.51034289147844,188.37L320.964159418434,188.37L324.42269427397827,188.37L327.87651080093383,189.96L331.38694727095424,188.37L334.78414385484496,188.37L338.1813404387356,188.37L341.63043863710243,188.37L345.084255164058,188.37L348.53807169101356,188.37L351.99188821796906,188.37L355.50232468798947,188.37L358.95614121494503,186.78L362.40995774190054,186.78L365.86849259744486,186.78L369.32230912440036,188.37L372.83274559442077,186.78L376.17332223524664,185.19L379.51389887607246,185.19L382.9629970744393,186.78L386.41681360139484,186.78L389.8706301283504,186.78L393.3244466553059,188.37L396.8348831253263,183.6L400.2886996522819,178.82999999999998L403.74251617923744,182.01L407.2010510347817,183.6L410.65486756173726,186.78L414.1653040317576,185.19L417.5058806725835,183.6L420.84645731340936,183.6L424.2955555117762,186.78L427.7493720387317,186.78L431.20318856568724,188.37L434.6570050926428,189.96L438.16744156266316,182.01L441.6212580896187,174.06L445.0750746165743,178.82999999999998L448.53360947211854,180.42L451.9874259990741,185.19L455.4978624690945,183.6L458.83843910992033,182.01L462.1790157507462,183.6L465.628113949113,185.19L469.0819304760686,185.19L472.5357470030241,188.37L475.98956352997965,189.96L479.50000000000006,189.96" stroke="#db4437" stroke-width="2" fill-opacity="1" fill="none"></path><path d="M0.5,194.73L3.8971965838907003,194.73L7.294393167781401,194.73L10.74349136614821,193.14L14.197307893103755,194.73L17.6511244200593,193.14L21.104940947014846,194.73L24.615377417035237,193.14L28.069193943990783,194.73L31.52301047094633,193.14L34.98154532649061,193.14L38.43536185344615,193.14L41.94579832346655,194.73L45.2863749642924,193.14L48.62695160511826,193.14L52.07604980348506,193.14L55.52986633044061,193.14L58.983682857396154,193.14L62.4374993843517,193.14L65.94793585437209,193.14L69.40175238132764,193.14L72.85556890828319,193.14L76.31410376382746,191.55L79.76792029078301,193.14L83.2783567608034,191.55L86.61893340162926,191.55L89.95951004245511,193.14L93.40860824082192,193.14L96.86242476777747,193.14L100.31624129473302,189.96L103.77005782168855,188.37L107.28049429170895,189.96L110.7343108186645,189.96L114.18812734562005,188.37L117.64666220116432,186.78L121.10047872811987,186.78L124.61091519814026,183.6L127.95149183896612,182.01L131.29206847979196,178.82999999999998L134.74116667815878,175.65L138.1949832051143,180.42L141.64879973206988,180.42L145.1026162590254,182.01L148.61305272904582,183.6L152.06686925600135,182.01L155.5206857829569,182.01L158.97922063850118,183.6L162.4330371654567,183.6L165.94347363547712,183.6L169.3406702193678,182.01L172.73786680325853,180.42L176.1869650016253,177.24L179.64078152858087,182.01L183.0945980555364,182.01L186.54841458249197,180.42L190.05885105251235,182.01L193.5126675794679,183.6L196.96648410642345,183.6L200.42501896196774,182.01L203.87883548892327,183.6L207.38927195894365,183.6L210.72984859976953,183.6L214.07042524059537,180.42L217.51952343896218,177.24L220.97333996591772,178.82999999999998L224.42715649287328,180.42L227.88097301982882,180.42L231.3914094898492,182.01L234.84522601680476,182.01L238.2990425437603,182.01L241.75757739930458,185.19L245.21139392626011,185.19L248.72183039628052,182.01L252.06240703710637,182.01L255.40298367793224,183.6L258.85208187629905,183.6L262.30589840325456,183.6L265.7597149302101,180.42L269.2135314571657,178.82999999999998L272.72396792718604,182.01L276.1777844541416,183.6L279.63160098109717,185.19L283.0901358366414,183.6L286.543952363597,183.6L290.0543888336174,183.6L293.3949654744432,185.19L296.7355421152691,183.6L300.1846403136359,183.6L303.63845684059146,183.6L307.09227336754697,180.42L310.54608989450253,183.6L314.05652636452294,185.19L317.51034289147844,183.6L320.964159418434,182.01L324.42269427397827,182.01L327.87651080093383,183.6L331.38694727095424,185.19L334.78414385484496,186.78L338.1813404387356,185.19L341.63043863710243,185.19L345.084255164058,185.19L348.53807169101356,186.78L351.99188821796906,186.78L355.50232468798947,185.19L358.95614121494503,183.6L362.40995774190054,185.19L365.86849259744486,182.01L369.32230912440036,175.65L372.83274559442077,182.01L376.17332223524664,185.19L379.51389887607246,185.19L382.9629970744393,180.42L386.41681360139484,183.6L389.8706301283504,183.6L393.3244466553059,182.01L396.8348831253263,185.19L400.2886996522819,185.19L403.74251617923744,185.19L407.2010510347817,185.19L410.65486756173726,185.19L414.1653040317576,185.19L417.5058806725835,185.19L420.84645731340936,182.01L424.2955555117762,185.19L427.7493720387317,185.19L431.20318856568724,183.6L434.6570050926428,183.6L438.16744156266316,182.01L441.6212580896187,185.19L445.0750746165743,186.78L448.53360947211854,185.19L451.9874259990741,185.19L455.4978624690945,185.19L458.83843910992033,185.19L462.1790157507462,185.19L465.628113949113,183.6L469.0819304760686,185.19L472.5357470030241,185.19L475.98956352997965,185.19L479.50000000000006,182.01" stroke="#f4b400" stroke-width="2" fill-opacity="1" fill="none"></path></g></g><g></g><g><g><text text-anchor="middle" x="40.19058008845635" y="213.65" font-family="Arial" font-size="9" stroke="none" stroke-width="0" fill="#999999">2005</text></g><g><text text-anchor="middle" x="122.85569696313006" y="213.65" font-family="Arial" font-size="9" stroke="none" stroke-width="0" fill="#999999">2007</text></g><g><text text-anchor="middle" x="205.63405372393348" y="213.65" font-family="Arial" font-size="9" stroke="none" stroke-width="0" fill="#999999">2009</text></g><g><text text-anchor="middle" x="288.2991705986072" y="213.65" font-family="Arial" font-size="9" stroke="none" stroke-width="0" fill="#999999">2011</text></g><g><text text-anchor="middle" x="371.07752735941057" y="213.65" font-family="Arial" font-size="9" stroke="none" stroke-width="0" fill="#999999">2013</text></g><g><text text-anchor="middle" x="453.7426442340843" y="213.65" font-family="Arial" font-size="9" stroke="none" stroke-width="0" fill="#999999">2015</text></g></g></g><g></g></svg>
